<svg id="svg" version="1.1" xmlns="http://www.w3.org/2000/svg" xmlns:xlink="http://www.w3.org/1999/xlink" width="400" height="400" viewBox="0, 0, 400,400"><g id="svgg"><path id="path0" d="M283.800 176.505 C 275.759 180.245,276.512 179.672,277.610 181.214 C 279.987 184.552,280.001 184.758,279.986 214.336 C 279.970 243.480,279.936 244.030,277.855 248.041 C 277.314 249.084,276.975 250.042,277.102 250.169 C 277.538 250.605,294.400 250.425,294.400 249.984 C 294.400 249.755,294.018 248.819,293.551 247.903 C 290.853 242.615,291.042 245.400,290.810 207.571 L 290.600 173.342 283.800 176.505 M73.556 183.500 C 77.142 193.185,76.912 192.803,78.362 191.494 C 79.775 190.218,83.602 187.402,84.674 186.850 C 85.179 186.590,87.582 186.400,90.374 186.400 L 95.200 186.400 95.200 213.536 C 95.200 243.033,95.077 244.802,92.810 247.986 C 91.369 250.010,91.327 250.000,101.600 250.000 C 107.028 250.000,111.200 249.843,111.200 249.640 C 111.200 249.442,110.753 248.317,110.207 247.140 C 108.016 242.420,107.970 241.682,108.090 213.000 L 108.200 186.600 112.400 186.480 C 118.179 186.314,118.600 186.441,122.801 189.622 C 124.839 191.165,126.553 192.376,126.609 192.314 C 126.666 192.251,127.786 189.545,129.099 186.300 L 131.485 180.400 101.946 180.400 L 72.408 180.400 73.556 183.500 M262.688 198.974 C 260.146 199.704,255.929 202.263,253.136 204.769 C 250.246 207.362,250.400 207.473,250.400 202.800 C 250.400 197.981,251.075 198.072,243.063 201.815 C 235.672 205.268,235.613 205.309,236.540 206.333 C 240.244 210.427,240.437 242.125,236.795 248.299 C 236.358 249.040,236.000 249.725,236.000 249.823 C 236.000 249.920,239.960 250.000,244.800 250.000 C 249.640 250.000,253.600 249.944,253.600 249.875 C 253.600 249.806,253.260 249.041,252.845 248.175 C 250.569 243.429,250.609 243.796,250.483 226.563 C 250.353 208.739,250.146 210.021,253.277 209.258 C 257.733 208.171,260.945 208.926,263.750 211.719 C 264.822 212.787,265.826 213.512,265.980 213.330 C 266.230 213.037,273.482 203.834,274.550 202.455 C 276.274 200.231,267.387 197.622,262.688 198.974 M151.000 199.636 C 138.713 202.370,133.390 210.174,133.430 225.400 C 133.478 243.339,140.695 251.291,157.000 251.369 C 171.358 251.438,178.754 244.690,180.359 230.059 C 182.578 209.822,168.905 195.653,151.000 199.636 M196.800 199.898 C 194.742 200.703,184.800 205.609,184.800 205.820 C 184.800 205.961,185.139 206.554,185.553 207.138 C 187.659 210.109,187.771 211.085,187.995 228.400 C 188.233 246.683,188.248 246.780,191.321 249.411 C 196.510 253.852,205.490 251.929,214.283 244.493 C 216.941 242.246,217.200 242.453,217.200 246.824 C 217.200 251.250,216.733 251.195,225.022 247.746 C 232.449 244.656,231.891 244.990,231.111 244.102 C 228.273 240.874,228.000 238.564,228.000 217.753 C 228.000 199.561,227.999 199.546,227.177 199.807 C 226.725 199.951,224.250 201.058,221.677 202.268 C 219.105 203.478,216.235 204.817,215.301 205.243 L 213.601 206.019 214.585 207.510 C 216.844 210.933,216.930 211.558,217.100 225.800 C 217.283 241.186,217.600 240.043,212.820 241.246 C 206.190 242.916,201.147 241.162,198.888 236.400 C 198.308 235.176,198.207 232.773,198.086 217.300 C 198.010 207.565,197.824 199.614,197.674 199.632 C 197.523 199.649,197.130 199.769,196.800 199.898 M297.200 200.823 C 297.200 201.056,297.729 201.911,298.375 202.723 C 300.884 205.878,302.826 209.975,305.995 218.800 C 309.371 228.203,311.288 233.505,311.998 235.400 C 312.410 236.500,313.839 240.432,315.174 244.139 L 317.601 250.877 316.819 254.017 C 313.990 265.385,305.809 268.300,301.362 259.525 C 300.112 257.059,300.566 256.869,295.000 262.186 L 290.200 266.772 291.157 267.531 C 301.027 275.357,320.961 264.757,326.003 249.000 C 326.284 248.120,327.313 245.510,328.289 243.200 C 331.336 235.985,332.640 232.858,336.214 224.200 C 343.039 207.661,343.435 206.841,346.222 203.462 C 347.420 202.010,348.400 200.727,348.400 200.611 C 348.400 200.495,344.800 200.400,340.400 200.400 C 336.000 200.400,332.400 200.555,332.400 200.745 C 332.400 200.935,332.958 201.790,333.639 202.645 C 336.645 206.418,336.926 209.283,334.828 214.800 C 334.117 216.670,333.262 218.920,332.927 219.800 C 332.593 220.680,331.275 224.280,330.000 227.800 C 327.005 236.066,326.380 237.600,326.005 237.600 C 325.589 237.600,325.188 236.498,322.800 228.800 C 321.674 225.170,320.597 221.750,320.406 221.200 C 316.384 209.606,315.642 204.743,317.500 202.138 C 317.995 201.444,318.400 200.769,318.400 200.638 C 318.400 200.507,313.630 200.400,307.800 200.400 C 300.609 200.400,297.200 200.536,297.200 200.823 M156.047 206.944 C 165.505 209.943,169.595 218.593,169.598 235.600 C 169.599 245.284,168.878 246.336,162.714 245.635 C 152.948 244.526,147.737 238.893,144.833 226.309 C 143.325 219.772,142.696 210.345,143.630 208.293 C 144.703 205.939,150.791 205.277,156.047 206.944 M200.192 258.900 C 199.622 261.200,200.179 270.186,200.900 270.324 C 201.542 270.448,201.600 269.946,201.600 264.229 C 201.600 258.994,201.505 258.000,201.008 258.000 C 200.682 258.000,200.315 258.405,200.192 258.900 M144.456 259.166 C 144.975 259.587,145.263 260.068,145.096 260.236 C 144.929 260.404,144.514 260.195,144.174 259.771 C 143.583 259.034,143.575 259.039,143.992 259.900 C 144.454 260.854,145.609 261.144,145.587 260.300 C 145.569 259.575,144.595 258.400,144.012 258.400 C 143.736 258.400,143.936 258.745,144.456 259.166 M201.200 264.200 C 201.200 267.800,201.048 270.000,200.800 270.000 C 200.553 270.000,200.400 267.889,200.400 264.467 C 200.400 259.607,200.533 258.400,201.067 258.400 C 201.140 258.400,201.200 261.010,201.200 264.200 M100.317 264.337 C 100.444 269.884,100.530 270.415,101.287 270.368 C 101.689 270.344,101.692 270.293,101.300 270.135 C 100.936 269.988,100.800 268.530,100.800 264.790 C 100.800 261.962,100.665 259.563,100.500 259.461 C 100.335 259.359,100.252 261.553,100.317 264.337 M158.717 264.337 C 158.844 269.884,158.930 270.415,159.687 270.368 C 160.089 270.344,160.092 270.293,159.700 270.135 C 159.336 269.988,159.200 268.530,159.200 264.790 C 159.200 261.962,159.065 259.563,158.900 259.461 C 158.735 259.359,158.652 261.553,158.717 264.337 M140.801 261.138 C 140.801 261.434,141.172 262.199,141.627 262.838 C 142.082 263.477,142.255 264.000,142.011 264.000 C 141.767 264.000,142.250 264.735,143.084 265.634 C 143.918 266.533,144.738 267.568,144.906 267.934 C 145.088 268.330,145.123 268.142,144.991 267.468 C 144.800 266.494,144.875 266.370,145.528 266.577 C 146.003 266.728,146.495 266.553,146.844 266.109 C 147.353 265.460,147.339 265.448,146.681 265.965 C 145.889 266.587,143.170 264.378,141.555 261.800 C 141.141 261.140,140.802 260.842,140.801 261.138 M108.762 262.514 C 108.016 263.017,107.359 263.782,107.303 264.214 C 107.218 264.867,107.266 264.848,107.588 264.100 C 108.703 261.504,113.482 261.521,114.614 264.125 C 114.919 264.826,115.176 265.163,115.184 264.874 C 115.263 262.221,111.338 260.778,108.762 262.514 M130.018 262.273 C 129.332 262.753,129.004 262.812,128.892 262.475 C 128.623 261.668,127.628 261.951,127.389 262.901 C 126.867 264.981,127.365 270.185,128.100 270.325 C 128.717 270.443,128.791 270.136,128.723 267.729 L 128.646 265.000 128.504 267.500 C 128.426 268.875,128.190 270.000,127.981 270.000 C 127.499 270.000,127.474 262.925,127.955 262.628 C 128.526 262.275,129.237 263.431,128.953 264.249 C 128.711 264.946,128.732 264.951,129.246 264.318 C 129.551 263.943,130.310 263.447,130.933 263.216 C 131.555 262.984,131.994 262.582,131.908 262.323 C 131.654 261.563,131.053 261.547,130.018 262.273 M168.271 262.049 C 167.870 262.282,167.105 262.363,166.571 262.228 C 165.993 262.083,165.600 262.159,165.600 262.416 C 165.600 262.653,165.765 262.745,165.966 262.621 C 166.167 262.497,166.400 262.600,166.483 262.850 C 166.589 263.167,167.018 263.108,167.895 262.654 C 168.603 262.288,169.254 262.164,169.382 262.371 C 169.507 262.574,169.334 262.825,168.997 262.929 C 168.560 263.064,168.588 263.100,169.092 263.054 C 169.839 262.985,170.082 261.952,169.400 261.746 C 169.180 261.680,168.672 261.816,168.271 262.049 M173.323 262.078 C 172.841 262.311,172.340 262.779,172.210 263.118 C 171.861 264.028,172.589 264.554,173.264 263.878 C 174.273 262.870,175.564 262.688,176.720 263.391 L 177.800 264.047 176.856 263.224 C 175.661 262.182,174.784 262.183,173.454 263.229 C 172.874 263.685,172.400 263.875,172.400 263.652 C 172.400 262.395,175.610 261.549,177.184 262.392 C 178.516 263.104,179.631 270.000,178.414 270.000 C 177.834 270.000,177.123 268.454,177.445 267.892 C 177.599 267.621,177.289 267.850,176.755 268.400 C 176.154 269.019,175.940 269.512,176.192 269.694 C 176.441 269.873,176.379 269.990,176.033 269.994 C 175.722 269.997,175.582 270.116,175.724 270.257 C 175.865 270.398,176.255 270.286,176.590 270.008 C 177.068 269.611,177.326 269.607,177.782 269.985 C 178.766 270.802,179.200 270.060,179.200 267.564 C 179.200 262.662,176.783 260.406,173.323 262.078 M192.310 262.224 C 191.282 262.781,190.380 263.948,190.416 264.674 C 190.425 264.853,190.701 264.505,191.029 263.900 C 191.357 263.295,191.828 262.800,192.075 262.800 C 192.322 262.800,192.204 263.153,191.813 263.585 C 190.555 264.976,191.277 265.600,194.145 265.600 C 196.224 265.600,196.765 265.466,196.981 264.900 C 197.195 264.339,197.148 264.299,196.744 264.700 C 195.772 265.664,191.923 265.346,192.072 264.313 C 192.258 263.023,194.427 262.464,195.787 263.355 C 196.530 263.841,196.803 263.883,196.813 263.509 C 196.832 262.725,198.000 264.446,198.000 265.260 C 198.000 265.863,197.546 265.986,194.900 266.103 L 191.800 266.239 195.100 266.320 C 198.883 266.412,199.482 265.621,197.368 263.322 C 196.800 262.705,196.451 262.425,196.591 262.700 C 196.907 263.317,196.945 263.320,195.000 262.576 C 193.486 261.996,193.471 261.975,194.720 262.176 C 195.534 262.307,195.947 262.237,195.796 261.994 C 195.440 261.418,193.567 261.542,192.310 262.224 M117.366 262.545 C 117.251 262.844,117.222 264.149,117.303 265.445 L 117.449 267.800 117.524 265.076 C 117.571 263.380,117.751 262.446,118.000 262.600 C 118.220 262.736,118.400 262.657,118.400 262.424 C 118.400 261.811,117.612 261.903,117.366 262.545 M123.595 264.100 C 123.592 265.255,123.498 266.650,123.386 267.200 C 123.210 268.072,123.232 268.097,123.564 267.400 C 123.773 266.960,123.956 265.644,123.972 264.476 C 123.989 263.169,124.154 262.448,124.400 262.600 C 124.620 262.736,124.800 262.657,124.800 262.424 C 124.800 262.191,124.530 262.000,124.200 262.000 C 123.744 262.000,123.599 262.502,123.595 264.100 M131.600 262.400 C 131.600 262.620,131.435 262.800,131.233 262.800 C 131.031 262.800,130.536 262.905,130.133 263.033 C 129.462 263.246,129.466 263.212,130.176 262.633 C 131.066 261.908,131.600 261.821,131.600 262.400 M140.216 262.498 C 140.330 262.795,139.968 263.466,139.412 263.989 C 138.855 264.512,138.400 265.128,138.400 265.359 C 138.400 265.589,138.680 265.378,139.023 264.889 C 139.923 263.603,140.550 263.793,139.719 265.100 L 139.019 266.200 140.081 265.206 C 140.666 264.660,140.971 264.105,140.759 263.974 C 140.546 263.843,140.481 263.454,140.614 263.108 C 140.746 262.763,140.664 262.363,140.432 262.220 C 140.188 262.069,140.097 262.187,140.216 262.498 M180.800 262.747 C 180.800 263.190,180.999 263.676,181.243 263.826 C 181.541 264.011,181.597 263.822,181.416 263.250 C 181.264 262.772,181.320 262.400,181.544 262.400 C 181.762 262.400,182.034 262.715,182.148 263.100 C 182.310 263.649,182.336 263.629,182.272 263.005 C 182.160 261.913,180.800 261.675,180.800 262.747 M186.814 262.774 C 186.586 263.199,186.414 263.784,186.432 264.074 C 186.449 264.363,186.640 264.116,186.857 263.524 C 187.073 262.933,187.554 262.369,187.925 262.271 C 188.549 262.106,188.548 262.089,187.914 262.046 C 187.537 262.021,187.042 262.348,186.814 262.774 M109.746 262.868 C 107.943 263.741,107.451 266.794,108.829 268.546 C 109.285 269.126,109.493 269.600,109.291 269.600 C 108.847 269.600,107.788 268.428,107.484 267.600 C 107.288 267.067,107.261 267.067,107.244 267.600 C 107.208 268.755,109.173 270.441,110.474 270.372 C 110.763 270.356,110.640 270.189,110.200 270.000 C 109.548 269.720,109.664 269.651,110.824 269.628 C 111.606 269.613,112.596 269.320,113.024 268.978 C 113.774 268.377,113.770 268.370,112.926 268.778 C 109.481 270.442,106.706 266.458,109.420 263.744 C 111.388 261.775,114.265 263.606,113.868 266.573 C 113.728 267.616,113.780 267.960,114.021 267.579 C 115.694 264.935,112.575 261.498,109.746 262.868 M167.165 263.842 C 166.872 264.195,166.558 265.680,166.467 267.142 C 166.375 268.604,166.098 269.949,165.850 270.130 C 165.555 270.347,165.606 270.405,166.000 270.299 C 166.433 270.182,166.662 269.347,166.823 267.302 C 166.946 265.743,167.283 264.182,167.572 263.833 C 167.861 263.485,168.008 263.200,167.898 263.200 C 167.788 263.200,167.458 263.489,167.165 263.842 M143.825 265.300 L 145.000 266.600 143.700 265.425 C 142.488 264.330,142.216 264.000,142.525 264.000 C 142.594 264.000,143.179 264.585,143.825 265.300 M147.549 264.700 C 147.041 265.348,147.058 265.355,147.775 264.800 C 148.482 264.252,148.526 264.263,148.279 264.921 C 148.117 265.354,148.167 265.544,148.405 265.397 C 148.894 265.095,148.929 264.000,148.449 264.000 C 148.256 264.000,147.851 264.315,147.549 264.700 M181.645 264.800 C 181.653 265.130,182.006 266.120,182.429 267.000 C 182.852 267.880,183.086 268.162,182.949 267.626 C 182.573 266.161,181.629 264.114,181.645 264.800 M175.800 265.200 L 174.200 265.486 175.900 265.543 C 176.835 265.574,177.600 265.420,177.600 265.200 C 177.600 264.980,177.555 264.826,177.500 264.857 C 177.445 264.888,176.680 265.042,175.800 265.200 M147.174 266.848 C 146.802 267.543,146.874 267.904,147.572 268.848 C 148.509 270.115,148.277 270.374,147.132 269.339 C 146.424 268.698,142.738 269.672,143.394 270.327 C 143.504 270.438,144.217 270.194,144.978 269.784 C 146.315 269.064,146.386 269.063,147.165 269.768 C 148.599 271.066,149.559 270.218,148.228 268.829 C 147.299 267.859,147.198 267.551,147.578 266.841 C 147.826 266.378,147.938 266.000,147.828 266.000 C 147.718 266.000,147.424 266.382,147.174 266.848 M175.300 266.276 C 175.685 266.376,176.315 266.376,176.700 266.276 C 177.085 266.175,176.770 266.093,176.000 266.093 C 175.230 266.093,174.915 266.175,175.300 266.276 M191.218 266.846 C 191.192 267.772,192.737 269.603,193.529 269.586 C 194.008 269.576,193.915 269.414,193.203 269.020 C 192.654 268.716,191.987 267.957,191.721 267.334 C 191.454 266.710,191.228 266.491,191.218 266.846 M114.400 268.109 C 113.996 268.977,113.342 269.556,112.400 269.877 C 111.294 270.255,111.195 270.360,111.931 270.377 C 112.979 270.403,115.200 268.401,115.200 267.431 C 115.200 266.541,115.082 266.642,114.400 268.109 M118.425 267.211 C 118.392 268.022,119.521 269.603,120.123 269.587 C 120.391 269.580,120.298 269.345,119.911 269.051 C 119.532 268.763,119.048 268.094,118.836 267.564 C 118.624 267.034,118.439 266.875,118.425 267.211 M185.200 267.105 C 185.200 267.346,184.917 267.826,184.571 268.171 C 184.226 268.517,184.129 268.800,184.357 268.800 C 184.864 268.800,185.756 267.223,185.432 266.899 C 185.305 266.771,185.200 266.864,185.200 267.105 M185.665 268.572 C 185.106 270.118,184.281 270.413,183.632 269.300 C 183.408 268.915,183.219 268.789,183.212 269.020 C 183.196 269.594,184.047 270.400,184.670 270.400 C 185.239 270.400,186.523 268.170,186.315 267.545 C 186.241 267.324,185.949 267.786,185.665 268.572 M190.406 267.645 C 190.397 268.570,192.357 270.400,193.355 270.399 C 194.006 270.399,193.881 270.239,192.806 269.699 C 192.039 269.315,191.186 268.550,190.911 268.000 C 190.594 267.365,190.410 267.236,190.406 267.645 M139.422 268.111 C 139.723 268.899,141.136 269.797,141.501 269.432 C 141.629 269.305,141.530 269.200,141.282 269.200 C 141.034 269.200,140.453 268.795,139.991 268.300 C 139.351 267.615,139.216 267.570,139.422 268.111 M195.800 268.800 C 195.239 269.420,195.202 269.609,195.638 269.640 C 195.947 269.662,195.750 269.833,195.200 270.020 L 194.200 270.361 195.200 270.281 C 195.879 270.226,196.166 269.990,196.093 269.546 C 196.034 269.186,196.279 268.779,196.637 268.641 C 197.113 268.459,197.224 268.560,197.049 269.016 C 196.911 269.376,196.977 269.538,197.205 269.397 C 197.790 269.035,197.684 268.000,197.062 268.000 C 196.766 268.000,196.198 268.360,195.800 268.800 M122.000 269.012 C 121.400 269.347,121.240 269.580,121.600 269.592 C 122.133 269.610,122.133 269.655,121.600 270.000 C 121.071 270.342,121.074 270.388,121.620 270.394 C 121.961 270.397,122.448 270.192,122.703 269.937 C 123.054 269.586,123.318 269.600,123.793 269.994 C 124.759 270.796,124.800 270.307,123.848 269.326 C 123.080 268.534,122.906 268.504,122.000 269.012 M138.400 268.684 C 138.400 269.278,140.348 270.491,140.924 270.257 C 141.233 270.131,141.199 270.052,140.826 270.032 C 140.510 270.014,139.835 269.609,139.326 269.130 C 138.817 268.652,138.400 268.451,138.400 268.684 M172.471 269.842 C 172.820 270.191,173.415 270.415,173.794 270.338 C 174.268 270.243,174.070 270.045,173.159 269.704 C 171.951 269.251,171.891 269.263,172.471 269.842 " stroke="none" fill="#3db3cb" fill-rule="evenodd"></path><path id="path1" d="M0.000 200.000 L 0.000 400.000 200.000 400.000 L 400.000 400.000 400.000 200.000 L 400.000 0.000 200.000 0.000 L 0.000 0.000 0.000 200.000 M297.400 111.742 C 301.606 113.005,297.712 116.885,286.000 123.100 C 284.570 123.859,282.860 124.800,282.200 125.191 C 281.540 125.581,280.190 126.348,279.200 126.894 C 272.914 130.362,272.518 130.631,269.700 133.358 C 267.839 135.158,267.200 136.055,267.200 136.865 C 267.200 138.465,267.553 138.480,270.617 137.008 C 274.873 134.963,275.041 134.946,276.411 136.412 C 278.608 138.763,277.284 141.146,272.900 142.730 C 269.086 144.109,269.196 144.032,269.424 145.147 C 269.714 146.563,270.374 149.156,270.781 150.476 C 271.074 151.428,270.945 151.665,269.656 152.536 C 267.391 154.067,266.679 154.149,265.603 153.004 C 264.645 151.984,263.053 151.668,262.596 152.407 C 262.184 153.073,261.658 152.464,261.888 151.586 C 262.169 150.512,260.905 149.113,259.933 149.421 C 259.335 149.611,259.200 149.436,259.200 148.470 C 259.200 146.996,258.180 146.513,257.112 147.480 C 256.373 148.149,256.310 148.141,255.669 147.305 C 253.101 143.952,246.768 145.191,235.800 151.192 C 234.163 152.088,231.000 153.254,226.000 154.805 C 218.887 157.012,219.132 156.833,219.261 159.730 C 219.446 163.852,218.374 164.240,214.724 161.373 L 212.398 159.546 209.353 160.007 C 205.630 160.571,204.873 160.160,206.743 158.587 C 208.341 157.242,208.322 157.069,206.500 156.454 C 205.675 156.175,204.640 155.796,204.200 155.612 C 203.760 155.427,201.870 154.692,200.000 153.979 C 194.462 151.866,194.276 150.840,199.526 151.359 C 206.254 152.023,207.600 152.087,207.600 151.742 C 207.600 151.541,206.777 149.791,205.771 147.853 C 203.771 143.999,203.757 144.139,206.278 142.766 C 207.269 142.227,207.289 142.235,214.502 145.838 L 218.803 147.987 221.323 147.459 C 222.736 147.163,224.974 146.264,226.421 145.411 C 228.879 143.962,229.805 143.426,233.000 141.600 C 233.770 141.160,235.075 140.412,235.900 139.938 C 236.725 139.465,238.075 138.711,238.900 138.264 C 240.511 137.392,240.573 137.292,240.036 136.445 C 239.648 135.831,237.792 135.679,236.700 136.170 C 236.137 136.424,236.000 136.292,236.000 135.491 C 236.000 134.458,236.008 134.463,231.928 132.989 C 230.199 132.364,229.959 132.362,228.764 132.958 C 227.261 133.708,226.966 133.585,227.568 132.461 C 228.145 131.382,228.115 131.200,227.360 131.200 C 227.009 131.200,226.244 130.696,225.660 130.081 C 225.077 129.466,223.970 128.727,223.200 128.441 C 217.662 126.378,216.591 125.836,214.650 124.112 C 212.582 122.276,213.406 121.484,215.600 123.200 C 216.351 123.787,217.237 123.984,219.154 123.991 C 220.558 123.996,222.358 124.164,223.154 124.365 C 225.557 124.972,227.823 125.410,242.100 128.024 C 244.575 128.477,247.340 129.033,248.244 129.260 C 249.977 129.695,249.793 129.752,254.600 127.287 C 257.661 125.718,258.344 125.499,259.376 125.758 C 260.115 125.944,260.957 125.709,262.306 124.943 C 265.941 122.878,269.712 120.800,269.826 120.800 C 269.889 120.800,271.375 119.920,273.126 118.845 C 284.507 111.860,286.034 111.218,291.200 111.241 C 293.730 111.252,296.520 111.478,297.400 111.742 M291.395 173.700 C 291.510 174.195,291.651 189.900,291.709 208.600 C 291.825 246.271,291.647 243.624,294.374 248.245 C 295.929 250.882,296.204 250.800,285.824 250.800 C 275.819 250.800,275.438 250.720,276.723 248.897 C 277.148 248.294,277.924 246.630,278.448 245.200 L 279.400 242.600 279.400 214.600 C 279.400 184.205,279.477 185.326,277.136 181.635 L 275.983 179.816 276.837 179.172 C 277.307 178.818,278.313 178.303,279.073 178.028 C 279.832 177.754,282.647 176.469,285.327 175.175 C 290.826 172.518,291.103 172.450,291.395 173.700 M132.001 180.300 C 132.006 181.325,127.026 192.800,126.577 192.800 C 126.281 192.800,124.375 191.549,122.340 190.019 C 118.246 186.940,117.200 186.628,111.800 186.873 L 109.000 187.000 108.887 214.000 C 108.766 242.944,108.732 242.374,110.862 247.155 C 111.488 248.561,112.000 249.866,112.000 250.055 C 112.000 250.245,107.320 250.400,101.600 250.400 C 95.880 250.400,91.200 250.252,91.200 250.071 C 91.200 249.890,91.715 248.765,92.345 247.571 C 94.448 243.586,94.434 243.818,94.313 214.400 L 94.200 187.000 91.600 186.872 C 86.340 186.614,85.129 186.979,81.102 190.032 C 76.536 193.494,76.822 193.547,75.035 188.900 C 74.210 186.755,73.190 184.121,72.768 183.047 C 72.345 181.972,72.000 180.847,72.000 180.547 C 72.000 180.089,76.901 180.000,102.000 180.000 C 118.500 180.000,132.001 180.135,132.001 180.300 M250.800 202.161 L 251.000 206.058 252.167 204.837 C 258.694 198.010,270.170 195.901,274.535 200.728 C 275.614 201.921,275.414 202.310,270.600 208.393 C 266.333 213.786,265.174 214.921,264.869 214.008 C 263.655 210.366,256.677 208.214,252.268 210.123 L 250.735 210.786 250.893 226.493 C 251.064 243.535,251.047 243.396,253.551 248.303 C 254.018 249.219,254.400 250.065,254.400 250.184 C 254.400 250.303,250.080 250.400,244.800 250.400 C 239.520 250.400,235.201 250.265,235.201 250.100 C 235.202 249.935,235.556 249.221,235.988 248.513 C 238.246 244.809,238.400 243.451,238.400 227.194 C 238.400 217.483,238.246 211.636,237.967 210.760 C 237.365 208.869,236.742 207.562,235.911 206.446 C 234.951 205.157,234.997 204.987,236.500 204.278 C 237.215 203.940,239.330 202.951,241.200 202.078 C 243.070 201.206,245.770 199.938,247.200 199.259 C 250.595 197.648,250.567 197.626,250.800 202.161 M161.000 198.957 C 174.090 201.169,180.895 210.560,180.887 226.400 C 180.879 243.212,172.834 252.000,157.454 252.000 C 140.733 252.000,132.801 243.377,132.800 225.200 C 132.799 206.390,143.893 196.066,161.000 198.957 M198.593 199.700 C 198.707 200.195,198.846 208.430,198.900 218.000 L 199.000 235.400 200.117 237.301 C 202.536 241.415,207.982 242.499,214.674 240.199 L 216.200 239.675 216.307 226.937 C 216.423 212.997,216.234 211.156,214.382 208.236 C 212.652 205.508,212.026 206.067,221.800 201.611 C 223.120 201.010,225.061 200.124,226.113 199.643 C 228.942 198.350,228.800 197.351,228.800 218.609 C 228.800 239.648,228.868 240.345,231.216 243.330 C 231.647 243.878,232.000 244.569,232.000 244.865 C 232.000 245.446,231.757 245.570,226.000 247.939 C 223.910 248.800,221.330 249.885,220.267 250.352 C 216.876 251.839,216.800 251.774,216.800 247.400 C 216.800 242.956,216.982 243.070,213.857 245.547 C 204.900 252.647,196.170 254.268,190.886 249.813 C 187.597 247.040,187.231 244.750,187.214 226.828 C 187.199 211.247,187.151 210.811,185.117 207.680 C 183.766 205.600,183.742 205.280,184.900 204.831 C 185.395 204.639,188.235 203.322,191.211 201.904 C 198.771 198.302,198.302 198.442,198.593 199.700 M319.200 200.576 C 319.200 200.893,319.017 201.266,318.794 201.404 C 316.950 202.544,316.385 206.565,317.554 210.234 C 317.968 211.535,318.895 214.490,319.613 216.800 C 324.110 231.274,325.784 236.391,326.021 236.396 C 326.143 236.398,326.929 234.555,327.769 232.300 C 330.951 223.754,331.681 221.771,332.000 220.800 C 332.181 220.250,332.903 218.270,333.604 216.400 C 336.504 208.668,336.463 207.275,333.205 202.960 C 330.868 199.865,330.541 200.000,340.400 200.000 C 350.147 200.000,349.924 199.916,347.533 202.676 C 345.975 204.473,343.200 208.504,343.200 208.969 C 343.200 209.083,342.764 210.130,342.231 211.295 C 341.698 212.460,340.874 214.401,340.400 215.607 C 339.926 216.813,339.287 218.340,338.981 219.000 C 338.241 220.598,335.239 227.817,332.744 234.000 C 331.635 236.750,330.368 239.788,329.930 240.752 C 329.492 241.715,328.317 244.595,327.319 247.152 C 324.634 254.031,323.165 256.575,319.000 261.557 C 316.497 264.551,310.854 268.229,306.292 269.838 C 302.226 271.273,293.368 270.102,290.561 267.758 L 289.400 266.789 294.571 261.794 C 300.498 256.070,300.350 256.131,301.621 258.845 C 304.996 266.051,312.137 265.390,315.062 257.600 C 317.238 251.802,317.249 251.403,315.365 246.400 C 314.578 244.310,313.603 241.610,313.198 240.400 C 312.794 239.190,311.893 236.670,311.196 234.800 C 310.499 232.930,309.779 230.950,309.596 230.400 C 309.412 229.850,308.899 228.410,308.454 227.200 C 305.718 219.754,305.046 217.901,304.116 215.237 C 302.618 210.944,299.979 205.767,297.851 202.945 C 296.833 201.595,296.000 200.380,296.000 200.245 C 296.000 200.110,301.220 200.000,307.600 200.000 C 317.433 200.000,319.200 200.088,319.200 200.576 M145.589 207.077 C 145.045 207.449,144.468 207.944,144.306 208.177 C 143.856 208.825,143.945 219.262,144.421 221.669 C 145.393 226.584,145.713 227.920,146.464 230.200 C 149.636 239.835,154.133 243.959,162.765 245.146 C 168.505 245.935,169.027 245.040,168.926 234.577 C 168.784 219.849,165.790 212.215,158.725 208.561 C 155.087 206.680,147.433 205.815,145.589 207.077 M104.700 257.852 C 106.283 258.276,105.834 259.553,104.000 259.846 L 102.400 260.102 102.400 265.002 C 102.400 270.100,102.083 271.114,100.662 270.569 C 100.132 270.365,100.004 269.461,99.912 265.262 L 99.800 260.200 98.530 260.077 C 96.905 259.919,96.099 259.045,96.800 258.200 C 97.317 257.577,102.776 257.337,104.700 257.852 M144.392 258.196 C 145.565 258.803,146.252 260.069,145.802 260.796 C 145.414 261.425,144.733 261.277,143.746 260.349 C 142.663 259.332,141.600 259.605,141.600 260.901 C 141.600 262.063,145.987 266.498,146.298 265.650 C 146.547 264.971,147.892 263.598,148.300 263.606 C 149.542 263.631,149.635 264.360,148.606 265.991 L 147.535 267.688 148.660 268.863 C 149.602 269.846,149.689 270.099,149.193 270.413 C 148.350 270.946,147.965 270.892,147.111 270.120 C 146.413 269.487,146.270 269.485,145.080 270.092 C 140.049 272.658,135.249 268.455,138.626 264.442 C 139.494 263.410,139.617 262.959,139.421 261.511 C 139.005 258.435,141.559 256.731,144.392 258.196 M163.100 257.852 C 164.683 258.276,164.234 259.553,162.400 259.846 L 160.800 260.102 160.800 265.002 C 160.800 270.100,160.483 271.114,159.062 270.569 C 158.532 270.365,158.404 269.461,158.312 265.262 L 158.200 260.200 156.930 260.077 C 155.305 259.919,154.499 259.045,155.200 258.200 C 155.717 257.577,161.176 257.337,163.100 257.852 M201.800 264.200 C 201.800 270.333,201.767 270.600,201.000 270.600 C 200.237 270.600,200.195 270.297,200.090 264.071 L 199.980 257.542 200.890 257.671 C 201.793 257.799,201.800 257.847,201.800 264.200 M113.474 261.980 C 115.659 263.312,116.315 265.707,115.221 268.349 C 113.772 271.848,108.013 271.476,106.802 267.805 C 105.356 263.426,109.670 259.660,113.474 261.980 M132.400 262.435 C 132.400 262.898,132.023 263.279,131.416 263.432 C 129.870 263.820,129.415 264.708,129.200 267.760 C 129.023 270.267,128.906 270.600,128.200 270.600 C 127.454 270.600,127.392 270.295,127.286 266.047 L 127.173 261.495 128.286 261.691 C 128.899 261.800,129.850 261.764,130.400 261.611 C 131.727 261.243,132.400 261.521,132.400 262.435 M178.056 262.334 C 180.493 264.511,180.130 271.754,177.650 270.427 C 177.073 270.118,176.771 270.123,176.572 270.445 C 176.123 271.171,172.471 270.645,171.799 269.757 C 170.110 267.526,172.076 264.800,175.374 264.800 C 176.345 264.800,176.800 264.617,176.800 264.227 C 176.800 263.201,175.200 263.049,173.971 263.959 C 172.458 265.077,171.600 265.042,171.600 263.862 C 171.600 261.296,175.786 260.305,178.056 262.334 M196.209 261.778 C 200.192 263.442,199.469 266.548,195.058 266.717 C 193.376 266.781,192.000 266.993,192.000 267.188 C 192.000 268.579,195.046 269.349,196.000 268.200 C 196.592 267.486,197.836 267.411,198.240 268.065 C 199.643 270.334,192.816 271.630,190.941 269.450 C 187.519 265.471,191.426 259.780,196.209 261.778 M119.119 264.782 C 119.363 270.877,123.180 270.239,123.194 264.100 C 123.200 261.693,123.238 261.600,124.213 261.600 L 125.226 261.600 125.113 266.064 L 125.000 270.528 122.083 270.678 C 117.759 270.900,116.800 269.870,116.800 265.004 L 116.800 261.547 117.900 261.673 C 118.978 261.797,119.002 261.860,119.119 264.782 M170.400 262.422 C 170.400 262.904,170.028 263.278,169.391 263.438 C 167.821 263.832,167.200 265.081,167.200 267.846 C 167.200 270.445,166.538 271.344,165.349 270.358 C 164.783 269.888,164.563 264.323,165.040 262.545 C 165.371 261.313,170.400 261.199,170.400 262.422 M183.416 264.678 C 184.646 268.052,184.493 268.098,186.020 263.900 C 186.726 261.961,187.010 261.600,187.829 261.600 C 189.093 261.600,189.065 261.876,187.367 266.259 C 185.100 272.110,183.990 272.280,182.000 267.082 C 180.156 262.261,180.071 261.600,181.296 261.600 C 182.175 261.600,182.426 261.965,183.416 264.678 M109.600 264.000 C 108.630 264.970,108.535 267.278,109.429 268.171 C 110.362 269.104,112.238 268.967,112.977 267.911 C 114.274 266.060,113.195 263.200,111.200 263.200 C 110.760 263.200,110.040 263.560,109.600 264.000 M193.100 263.632 C 191.857 264.356,192.352 264.800,194.400 264.800 C 196.475 264.800,196.962 264.329,195.626 263.614 C 194.668 263.101,194.003 263.106,193.100 263.632 M140.480 265.280 C 139.203 266.557,140.202 268.800,142.047 268.800 C 144.704 268.800,145.023 267.960,143.081 266.078 C 141.643 264.685,141.209 264.551,140.480 265.280 M174.042 267.166 C 173.119 267.750,173.845 268.872,175.052 268.727 C 176.855 268.510,177.655 266.798,175.949 266.806 C 175.207 266.809,174.349 266.971,174.042 267.166 " stroke="none" fill="#f3f3f3" fill-rule="evenodd"></path><path id="path2" d="M283.800 112.751 C 278.302 115.756,276.268 116.917,273.126 118.845 C 271.375 119.920,269.889 120.800,269.826 120.800 C 269.712 120.800,265.941 122.878,262.306 124.943 C 260.957 125.709,260.115 125.944,259.376 125.758 C 258.344 125.499,257.661 125.718,254.600 127.287 C 249.793 129.752,249.977 129.695,248.244 129.260 C 247.340 129.033,244.575 128.477,242.100 128.024 C 227.823 125.410,225.557 124.972,223.154 124.365 C 222.358 124.164,220.558 123.996,219.154 123.991 C 217.237 123.984,216.351 123.787,215.600 123.200 C 213.406 121.484,212.582 122.276,214.650 124.112 C 216.591 125.836,217.662 126.378,223.200 128.441 C 223.970 128.727,225.077 129.466,225.660 130.081 C 226.244 130.696,227.009 131.200,227.360 131.200 C 228.115 131.200,228.145 131.382,227.568 132.461 C 226.966 133.585,227.261 133.708,228.764 132.958 C 229.959 132.362,230.199 132.364,231.928 132.989 C 236.008 134.463,236.000 134.458,236.000 135.491 C 236.000 136.292,236.137 136.424,236.700 136.170 C 237.792 135.679,239.648 135.831,240.036 136.445 C 240.573 137.292,240.511 137.392,238.900 138.264 C 238.075 138.711,236.725 139.465,235.900 139.938 C 235.075 140.412,233.770 141.160,233.000 141.600 C 229.805 143.426,228.879 143.962,226.421 145.411 C 224.974 146.264,222.736 147.163,221.323 147.459 L 218.803 147.987 214.502 145.838 C 207.289 142.235,207.269 142.227,206.278 142.766 C 203.757 144.139,203.771 143.999,205.771 147.853 C 206.777 149.791,207.600 151.541,207.600 151.742 C 207.600 152.087,206.254 152.023,199.526 151.359 C 194.276 150.840,194.462 151.866,200.000 153.979 C 201.870 154.692,203.760 155.427,204.200 155.612 C 204.640 155.796,205.675 156.175,206.500 156.454 C 208.322 157.069,208.341 157.242,206.743 158.587 C 204.873 160.160,205.630 160.571,209.353 160.007 L 212.398 159.546 214.724 161.373 C 218.374 164.240,219.446 163.852,219.261 159.730 C 219.132 156.833,218.887 157.012,226.000 154.805 C 231.000 153.254,234.163 152.088,235.800 151.192 C 246.768 145.191,253.101 143.952,255.669 147.305 C 256.310 148.141,256.373 148.149,257.112 147.480 C 258.180 146.513,259.200 146.996,259.200 148.470 C 259.200 149.436,259.335 149.611,259.933 149.421 C 260.905 149.113,262.169 150.512,261.888 151.586 C 261.658 152.464,262.184 153.073,262.596 152.407 C 263.053 151.668,264.645 151.984,265.603 153.004 C 266.679 154.149,267.391 154.067,269.656 152.536 C 270.945 151.665,271.074 151.428,270.781 150.476 C 270.374 149.156,269.714 146.563,269.424 145.147 C 269.196 144.032,269.086 144.109,272.900 142.730 C 277.284 141.146,278.608 138.763,276.411 136.412 C 275.041 134.946,274.873 134.963,270.617 137.008 C 267.553 138.480,267.200 138.465,267.200 136.865 C 267.200 136.055,267.839 135.158,269.700 133.358 C 272.518 130.631,272.914 130.362,279.200 126.894 C 280.190 126.348,281.540 125.581,282.200 125.191 C 282.860 124.800,284.570 123.859,286.000 123.100 C 294.399 118.643,299.380 114.883,299.137 113.184 C 298.773 110.631,288.223 110.334,283.800 112.751 " stroke="none" fill="#fc6e37" fill-rule="evenodd"></path><path id="path3" d="M97.200 258.777 C 97.200 258.984,97.965 259.209,98.900 259.277 L 100.600 259.400 100.712 264.700 C 100.861 271.798,101.600 271.715,101.600 264.600 L 101.600 259.200 103.000 259.200 C 103.770 259.200,104.400 259.020,104.400 258.800 C 104.400 258.563,102.933 258.400,100.800 258.400 C 98.813 258.400,97.200 258.569,97.200 258.777 M140.889 259.023 C 139.961 259.673,139.644 261.733,140.400 262.200 C 141.034 262.592,140.883 262.995,139.600 264.337 C 136.347 267.741,139.968 271.676,144.430 269.586 C 146.266 268.726,146.437 268.710,147.127 269.334 C 148.282 270.379,148.509 270.115,147.560 268.831 L 146.696 267.663 147.548 266.284 C 148.746 264.345,148.589 263.947,147.258 265.551 C 145.897 267.192,145.389 267.018,142.647 263.968 C 140.444 261.518,140.153 259.826,141.826 259.190 C 142.929 258.771,144.189 259.196,144.510 260.095 C 144.609 260.373,144.850 260.450,145.045 260.266 C 146.251 259.129,142.388 257.973,140.889 259.023 M155.600 258.777 C 155.600 258.984,156.365 259.209,157.300 259.277 L 159.000 259.400 159.112 264.700 C 159.261 271.798,160.000 271.715,160.000 264.600 L 160.000 259.200 161.400 259.200 C 162.170 259.200,162.800 259.020,162.800 258.800 C 162.800 258.563,161.333 258.400,159.200 258.400 C 157.213 258.400,155.600 258.569,155.600 258.777 M200.667 258.667 C 200.225 259.109,200.353 270.000,200.800 270.000 C 201.048 270.000,201.200 267.800,201.200 264.200 C 201.200 261.010,201.140 258.400,201.067 258.400 C 200.993 258.400,200.813 258.520,200.667 258.667 M108.922 262.782 C 105.737 264.724,107.449 270.194,111.208 270.087 C 115.236 269.973,116.614 264.084,112.969 262.561 C 111.181 261.814,110.444 261.854,108.922 262.782 M130.176 262.633 C 129.466 263.212,129.462 263.246,130.133 263.033 C 130.536 262.905,131.031 262.800,131.233 262.800 C 131.435 262.800,131.600 262.620,131.600 262.400 C 131.600 261.821,131.066 261.908,130.176 262.633 M167.817 262.693 C 166.984 263.129,166.592 263.176,166.484 262.853 C 166.400 262.601,166.167 262.497,165.966 262.621 C 165.460 262.933,165.493 270.000,166.000 270.000 C 166.220 270.000,166.400 269.022,166.400 267.826 C 166.400 264.928,166.937 263.672,168.448 263.037 C 169.137 262.747,169.543 262.412,169.349 262.292 C 169.155 262.172,168.466 262.353,167.817 262.693 M173.289 262.623 C 172.800 262.965,172.400 263.428,172.400 263.652 C 172.400 263.875,172.874 263.685,173.454 263.229 C 175.215 261.844,177.600 262.645,177.600 264.623 C 177.600 265.523,177.449 265.600,175.689 265.600 C 173.266 265.600,172.000 266.438,172.000 268.043 C 172.000 269.523,174.315 270.763,175.765 270.059 C 176.496 269.705,176.420 269.651,175.149 269.627 C 172.067 269.570,171.851 266.822,174.882 266.236 C 177.138 265.800,178.252 266.381,177.578 267.642 C 177.143 268.454,177.692 270.000,178.414 270.000 C 178.943 270.000,178.902 265.612,178.358 264.051 C 177.645 262.007,175.165 261.308,173.289 262.623 M194.930 262.545 C 196.706 263.220,196.697 263.213,196.809 264.000 C 197.019 265.473,196.812 265.600,194.187 265.600 C 191.047 265.600,190.384 264.861,192.155 263.337 C 193.296 262.356,193.245 262.133,192.029 262.785 C 190.305 263.707,189.981 267.535,191.509 268.917 C 193.141 270.395,196.618 270.384,197.103 268.900 C 197.207 268.583,197.035 268.488,196.633 268.643 C 196.285 268.776,196.000 269.046,196.000 269.243 C 196.000 270.145,192.852 269.593,192.029 268.546 C 190.405 266.482,191.011 266.000,195.233 266.000 C 199.060 266.000,198.696 262.788,194.800 262.181 L 193.400 261.963 194.930 262.545 M112.537 262.844 C 114.294 263.644,114.866 265.940,113.815 267.971 C 112.309 270.883,108.000 269.693,108.000 266.365 C 108.000 263.418,110.144 261.754,112.537 262.844 M117.600 265.203 C 117.600 269.108,119.377 271.273,121.545 270.007 C 122.061 269.706,121.928 269.622,120.923 269.612 C 119.102 269.595,118.400 268.404,118.400 265.335 C 118.400 263.967,118.220 262.736,118.000 262.600 C 117.748 262.444,117.600 263.405,117.600 265.203 M124.000 264.389 C 124.000 265.509,123.736 267.057,123.414 267.828 C 123.092 268.599,123.003 269.122,123.217 268.989 C 123.431 268.857,123.714 269.031,123.846 269.375 C 123.978 269.719,124.246 270.000,124.443 270.000 C 124.936 270.000,124.895 262.906,124.400 262.600 C 124.153 262.448,124.000 263.133,124.000 264.389 M127.876 262.657 C 127.433 263.100,127.550 270.000,128.000 270.000 C 128.220 270.000,128.400 269.022,128.400 267.826 C 128.400 266.630,128.587 265.159,128.816 264.557 C 129.237 263.450,128.524 262.009,127.876 262.657 M181.220 262.700 C 181.305 263.970,183.935 269.815,184.467 269.918 C 185.147 270.048,188.269 262.912,187.743 262.431 C 187.604 262.304,187.418 262.380,187.329 262.600 C 187.239 262.820,186.679 264.245,186.083 265.767 C 184.645 269.442,184.310 269.426,182.957 265.617 C 182.003 262.934,181.138 261.481,181.220 262.700 M143.753 265.601 C 145.431 267.458,145.540 268.117,144.311 268.977 C 141.310 271.080,137.755 267.842,139.823 264.889 C 140.771 263.534,142.105 263.776,143.753 265.601 " stroke="none" fill="#047c8c" fill-rule="evenodd"></path><path id="path4" d="M285.327 175.175 C 282.647 176.469,279.832 177.754,279.073 178.028 C 278.313 178.303,277.307 178.818,276.837 179.172 L 275.983 179.816 277.136 181.635 C 279.477 185.326,279.400 184.205,279.400 214.600 L 279.400 242.600 278.448 245.200 C 277.924 246.630,277.148 248.294,276.723 248.897 C 275.438 250.720,275.819 250.800,285.824 250.800 C 296.204 250.800,295.929 250.882,294.374 248.245 C 291.647 243.624,291.825 246.271,291.709 208.600 C 291.651 189.900,291.510 174.195,291.395 173.700 C 291.103 172.450,290.826 172.518,285.327 175.175 M291.861 244.019 C 292.323 245.240,293.084 246.988,293.551 247.903 C 294.018 248.819,294.400 249.755,294.400 249.984 C 294.400 250.425,277.538 250.605,277.102 250.169 C 276.975 250.042,277.314 249.084,277.855 248.041 C 279.936 244.030,279.970 243.480,279.986 214.336 C 280.001 184.758,279.987 184.552,277.610 181.214 C 276.512 179.672,275.759 180.245,283.800 176.505 L 290.600 173.342 290.810 207.571 C 291.016 241.120,291.036 241.844,291.861 244.019 M72.000 180.547 C 72.000 180.847,72.345 181.972,72.768 183.047 C 73.190 184.121,74.210 186.755,75.035 188.900 C 76.822 193.547,76.536 193.494,81.102 190.032 C 85.129 186.979,86.340 186.614,91.600 186.872 L 94.200 187.000 94.313 214.400 C 94.434 243.818,94.448 243.586,92.345 247.571 C 91.715 248.765,91.200 249.890,91.200 250.071 C 91.200 250.252,95.880 250.400,101.600 250.400 C 107.320 250.400,112.000 250.245,112.000 250.055 C 112.000 249.866,111.488 248.561,110.862 247.155 C 108.732 242.374,108.766 242.944,108.887 214.000 L 109.000 187.000 111.800 186.873 C 117.200 186.628,118.246 186.940,122.340 190.019 C 124.375 191.549,126.281 192.800,126.577 192.800 C 127.026 192.800,132.006 181.325,132.001 180.300 C 132.001 180.135,118.500 180.000,102.000 180.000 C 76.901 180.000,72.000 180.089,72.000 180.547 M129.099 186.300 C 127.786 189.545,126.666 192.251,126.609 192.314 C 126.553 192.376,124.839 191.165,122.801 189.622 C 118.600 186.441,118.179 186.314,112.400 186.480 L 108.200 186.600 108.090 213.000 C 107.970 241.682,108.016 242.420,110.207 247.140 C 110.753 248.317,111.200 249.442,111.200 249.640 C 111.200 249.843,107.028 250.000,101.600 250.000 C 91.327 250.000,91.369 250.010,92.810 247.986 C 95.077 244.802,95.200 243.033,95.200 213.536 L 95.200 186.400 90.374 186.400 C 87.582 186.400,85.179 186.590,84.674 186.850 C 83.602 187.402,79.775 190.218,78.362 191.494 C 76.912 192.803,77.142 193.185,73.556 183.500 L 72.408 180.400 101.946 180.400 L 131.485 180.400 129.099 186.300 M247.200 199.259 C 245.770 199.938,243.070 201.206,241.200 202.078 C 239.330 202.951,237.215 203.940,236.500 204.278 C 234.997 204.987,234.951 205.157,235.911 206.446 C 236.742 207.562,237.365 208.869,237.967 210.760 C 238.246 211.636,238.400 217.483,238.400 227.194 C 238.400 243.451,238.246 244.809,235.988 248.513 C 235.556 249.221,235.202 249.935,235.201 250.100 C 235.201 250.265,239.520 250.400,244.800 250.400 C 250.080 250.400,254.400 250.303,254.400 250.184 C 254.400 250.065,254.018 249.219,253.551 248.303 C 251.047 243.396,251.064 243.535,250.893 226.493 L 250.735 210.786 252.268 210.123 C 256.677 208.214,263.655 210.366,264.869 214.008 C 265.174 214.921,266.333 213.786,270.600 208.393 C 275.414 202.310,275.614 201.921,274.535 200.728 C 270.170 195.901,258.694 198.010,252.167 204.837 L 251.000 206.058 250.800 202.161 C 250.567 197.626,250.595 197.648,247.200 199.259 M152.000 198.872 C 138.601 201.668,132.799 209.623,132.800 225.200 C 132.801 239.724,138.031 248.189,148.857 251.189 C 155.908 253.143,165.699 252.073,170.816 248.789 C 186.668 238.618,183.591 206.295,166.191 200.195 C 161.792 198.654,155.747 198.090,152.000 198.872 M270.921 199.199 C 272.987 199.811,275.118 201.722,274.550 202.455 C 273.482 203.834,266.230 213.037,265.980 213.330 C 265.826 213.512,264.822 212.787,263.750 211.719 C 260.945 208.926,257.733 208.171,253.277 209.258 C 250.146 210.021,250.353 208.739,250.483 226.563 C 250.609 243.796,250.569 243.429,252.845 248.175 C 253.260 249.041,253.600 249.806,253.600 249.875 C 253.600 249.944,249.640 250.000,244.800 250.000 C 239.960 250.000,236.000 249.920,236.000 249.823 C 236.000 249.725,236.358 249.040,236.795 248.299 C 240.437 242.125,240.244 210.427,236.540 206.333 C 235.613 205.309,235.672 205.268,243.063 201.815 C 251.075 198.072,250.400 197.981,250.400 202.800 C 250.400 207.473,250.246 207.362,253.136 204.769 C 259.258 199.275,265.052 197.461,270.921 199.199 M197.211 199.095 C 196.887 199.222,194.187 200.486,191.211 201.904 C 188.235 203.322,185.395 204.639,184.900 204.831 C 183.742 205.280,183.766 205.600,185.117 207.680 C 187.151 210.811,187.199 211.247,187.214 226.828 C 187.231 244.750,187.597 247.040,190.886 249.813 C 196.170 254.268,204.900 252.647,213.857 245.547 C 216.982 243.070,216.800 242.956,216.800 247.400 C 216.800 251.774,216.876 251.839,220.267 250.352 C 221.330 249.885,223.910 248.800,226.000 247.939 C 231.757 245.570,232.000 245.446,232.000 244.865 C 232.000 244.569,231.647 243.878,231.216 243.330 C 228.868 240.345,228.800 239.648,228.800 218.609 C 228.800 197.351,228.942 198.350,226.113 199.643 C 225.061 200.124,223.120 201.010,221.800 201.611 C 212.026 206.067,212.652 205.508,214.382 208.236 C 216.234 211.156,216.423 212.997,216.307 226.937 L 216.200 239.675 214.674 240.199 C 207.982 242.499,202.536 241.415,200.117 237.301 L 199.000 235.400 198.900 218.000 C 198.786 198.046,198.823 198.461,197.211 199.095 M162.080 199.637 C 174.762 202.251,182.073 214.420,180.359 230.059 C 178.754 244.690,171.358 251.438,157.000 251.369 C 140.695 251.291,133.478 243.339,133.430 225.400 C 133.380 206.357,144.812 196.077,162.080 199.637 M198.086 217.300 C 198.207 232.773,198.308 235.176,198.888 236.400 C 201.147 241.162,206.190 242.916,212.820 241.246 C 217.600 240.043,217.283 241.186,217.100 225.800 C 216.930 211.558,216.844 210.933,214.585 207.510 L 213.601 206.019 215.301 205.243 C 216.235 204.817,219.105 203.478,221.677 202.268 C 224.250 201.058,226.725 199.951,227.177 199.807 C 227.999 199.546,228.000 199.561,228.000 217.753 C 228.000 238.564,228.273 240.874,231.111 244.102 C 231.891 244.990,232.449 244.656,225.022 247.746 C 216.733 251.195,217.200 251.250,217.200 246.824 C 217.200 242.453,216.941 242.246,214.283 244.493 C 205.490 251.929,196.510 253.852,191.321 249.411 C 188.248 246.780,188.233 246.683,187.995 228.400 C 187.771 211.085,187.659 210.109,185.553 207.138 C 185.139 206.554,184.800 205.961,184.800 205.820 C 184.800 205.497,196.789 199.734,197.674 199.632 C 197.824 199.614,198.010 207.565,198.086 217.300 M296.000 200.245 C 296.000 200.380,296.833 201.595,297.851 202.945 C 299.979 205.767,302.618 210.944,304.116 215.237 C 305.046 217.901,305.718 219.754,308.454 227.200 C 308.899 228.410,309.412 229.850,309.596 230.400 C 309.779 230.950,310.499 232.930,311.196 234.800 C 311.893 236.670,312.794 239.190,313.198 240.400 C 313.603 241.610,314.578 244.310,315.365 246.400 C 317.249 251.403,317.238 251.802,315.062 257.600 C 312.137 265.390,304.996 266.051,301.621 258.845 C 300.350 256.131,300.498 256.070,294.571 261.794 L 289.400 266.789 290.561 267.758 C 293.368 270.102,302.226 271.273,306.292 269.838 C 310.854 268.229,316.497 264.551,319.000 261.557 C 323.165 256.575,324.634 254.031,327.319 247.152 C 328.317 244.595,329.492 241.715,329.930 240.752 C 330.368 239.788,331.635 236.750,332.744 234.000 C 335.239 227.817,338.241 220.598,338.981 219.000 C 339.287 218.340,339.926 216.813,340.400 215.607 C 340.874 214.401,341.698 212.460,342.231 211.295 C 342.764 210.130,343.200 209.083,343.200 208.969 C 343.200 208.504,345.975 204.473,347.533 202.676 C 349.924 199.916,350.147 200.000,340.400 200.000 C 330.541 200.000,330.868 199.865,333.205 202.960 C 336.463 207.275,336.504 208.668,333.604 216.400 C 332.903 218.270,332.181 220.250,332.000 220.800 C 331.681 221.771,330.951 223.754,327.769 232.300 C 326.929 234.555,326.143 236.398,326.021 236.396 C 325.784 236.391,324.110 231.274,319.613 216.800 C 318.895 214.490,317.968 211.535,317.554 210.234 C 316.385 206.565,316.950 202.544,318.794 201.404 C 320.749 200.195,319.192 200.000,307.600 200.000 C 301.220 200.000,296.000 200.110,296.000 200.245 M318.400 200.638 C 318.400 200.769,317.995 201.444,317.500 202.138 C 315.642 204.743,316.384 209.606,320.406 221.200 C 320.597 221.750,321.674 225.170,322.800 228.800 C 325.188 236.498,325.589 237.600,326.005 237.600 C 326.380 237.600,327.005 236.066,330.000 227.800 C 331.275 224.280,332.593 220.680,332.927 219.800 C 333.262 218.920,334.117 216.670,334.828 214.800 C 336.926 209.283,336.645 206.418,333.639 202.645 C 332.958 201.790,332.400 200.935,332.400 200.745 C 332.400 200.555,336.000 200.400,340.400 200.400 C 344.800 200.400,348.400 200.495,348.400 200.611 C 348.400 200.727,347.420 202.010,346.222 203.462 C 343.435 206.841,343.039 207.661,336.214 224.200 C 332.640 232.858,331.336 235.985,328.289 243.200 C 327.313 245.510,326.284 248.120,326.003 249.000 C 322.973 258.466,312.948 268.074,304.435 269.670 C 300.223 270.460,293.481 269.373,291.157 267.531 L 290.200 266.772 295.000 262.186 C 300.566 256.869,300.112 257.059,301.362 259.525 C 305.809 268.300,313.990 265.385,316.819 254.017 L 317.601 250.877 315.174 244.139 C 313.839 240.432,312.410 236.500,311.998 235.400 C 311.288 233.505,309.371 228.203,305.995 218.800 C 302.826 209.975,300.884 205.878,298.375 202.723 C 296.481 200.343,296.250 200.400,307.800 200.400 C 313.630 200.400,318.400 200.507,318.400 200.638 M145.130 206.655 C 143.103 207.969,142.687 211.523,143.636 219.400 C 145.682 236.382,151.484 244.359,162.714 245.635 C 168.878 246.336,169.599 245.284,169.598 235.600 C 169.595 218.593,165.505 209.943,156.047 206.944 C 153.024 205.986,146.432 205.811,145.130 206.655 M154.491 207.191 C 164.856 209.803,168.758 217.207,168.926 234.577 C 169.027 245.040,168.505 245.935,162.765 245.146 C 154.133 243.959,149.636 239.835,146.464 230.200 C 145.713 227.920,145.393 226.584,144.421 221.669 C 143.945 219.262,143.856 208.825,144.306 208.177 C 145.654 206.236,149.299 205.883,154.491 207.191 M96.800 258.200 C 96.099 259.045,96.905 259.919,98.530 260.077 L 99.800 260.200 99.912 265.262 C 100.004 269.461,100.132 270.365,100.662 270.569 C 102.083 271.114,102.400 270.100,102.400 265.002 L 102.400 260.102 104.000 259.846 C 105.834 259.553,106.283 258.276,104.700 257.852 C 102.776 257.337,97.317 257.577,96.800 258.200 M141.000 258.083 C 139.541 258.920,139.177 259.710,139.421 261.511 C 139.617 262.959,139.494 263.410,138.626 264.442 C 135.249 268.455,140.049 272.658,145.080 270.092 C 146.270 269.485,146.413 269.487,147.111 270.120 C 147.965 270.892,148.350 270.946,149.193 270.413 C 149.689 270.099,149.602 269.846,148.660 268.863 L 147.535 267.688 148.606 265.991 C 149.635 264.360,149.542 263.631,148.300 263.606 C 147.892 263.598,146.547 264.971,146.298 265.650 C 146.159 266.029,145.365 265.516,143.748 264.005 L 141.400 261.809 143.718 264.205 L 146.035 266.600 147.187 265.203 C 148.673 263.399,149.210 263.932,148.027 266.037 L 147.112 267.665 148.220 268.821 C 149.563 270.223,148.602 271.069,147.154 269.759 C 146.377 269.055,146.283 269.053,145.137 269.710 C 140.508 272.367,135.760 267.800,139.305 264.099 C 140.296 263.065,140.365 262.818,139.975 261.702 C 139.204 259.489,141.044 257.692,143.528 258.232 C 144.358 258.412,144.464 258.368,144.000 258.038 C 143.224 257.487,142.008 257.505,141.000 258.083 M155.200 258.200 C 154.499 259.045,155.305 259.919,156.930 260.077 L 158.200 260.200 158.312 265.262 C 158.404 269.461,158.532 270.365,159.062 270.569 C 160.483 271.114,160.800 270.100,160.800 265.002 L 160.800 260.102 162.400 259.846 C 164.234 259.553,164.683 258.276,163.100 257.852 C 161.176 257.337,155.717 257.577,155.200 258.200 M200.032 258.272 C 200.050 258.692,200.148 258.789,200.265 258.500 C 201.149 256.310,201.600 258.253,201.600 264.247 C 201.600 270.436,201.592 270.491,200.742 270.269 C 200.130 270.109,200.008 270.168,200.315 270.475 C 201.703 271.863,202.023 270.585,201.910 264.109 C 201.802 257.909,201.784 257.798,200.900 257.672 C 200.241 257.579,200.008 257.740,200.032 258.272 M105.200 258.800 C 105.200 259.020,104.606 259.200,103.880 259.200 C 101.761 259.200,101.600 259.631,101.600 265.313 C 101.600 272.261,100.651 272.481,100.502 265.567 C 100.366 259.286,100.338 259.200,98.392 259.200 C 97.517 259.200,96.800 259.020,96.800 258.800 C 96.800 258.559,98.467 258.400,101.000 258.400 C 103.533 258.400,105.200 258.559,105.200 258.800 M144.813 258.676 C 144.806 258.938,144.980 259.264,145.200 259.400 C 145.812 259.778,145.676 260.800,145.014 260.800 C 144.692 260.800,144.235 260.440,144.000 260.000 C 143.470 259.010,142.333 258.969,141.482 259.909 C 141.043 260.394,140.958 260.805,141.214 261.209 C 141.509 261.676,141.589 261.609,141.594 260.887 C 141.603 259.577,142.672 259.340,143.800 260.400 C 144.786 261.326,146.000 261.265,146.000 260.289 C 146.000 259.616,144.830 258.027,144.813 258.676 M163.600 258.800 C 163.600 259.020,163.006 259.200,162.280 259.200 C 160.161 259.200,160.000 259.631,160.000 265.313 C 160.000 272.261,159.051 272.481,158.902 265.567 C 158.766 259.286,158.738 259.200,156.792 259.200 C 155.917 259.200,155.200 259.020,155.200 258.800 C 155.200 258.559,156.867 258.400,159.400 258.400 C 161.933 258.400,163.600 258.559,163.600 258.800 M109.600 261.481 C 106.103 262.754,105.437 268.136,108.541 270.029 C 111.981 272.127,115.834 269.846,115.718 265.781 C 115.631 262.684,112.445 260.446,109.600 261.481 M131.578 261.773 C 132.140 262.451,131.825 263.200,130.976 263.200 C 129.537 263.200,128.800 264.705,128.800 267.647 C 128.800 270.360,128.760 270.483,127.942 270.269 C 127.330 270.109,127.208 270.168,127.515 270.475 C 128.536 271.496,129.200 270.482,129.200 267.902 C 129.200 265.079,129.811 263.835,131.391 263.438 C 132.546 263.148,132.777 261.830,131.743 261.434 C 131.202 261.226,131.173 261.286,131.578 261.773 M173.600 261.484 C 172.462 261.902,171.600 262.927,171.600 263.862 C 171.600 265.042,172.458 265.077,173.971 263.959 C 175.200 263.049,176.800 263.201,176.800 264.227 C 176.800 264.617,176.345 264.800,175.374 264.800 C 172.119 264.800,170.107 267.526,171.757 269.700 C 172.535 270.726,172.954 270.556,172.223 269.511 C 170.788 267.463,172.012 265.694,175.112 265.332 C 177.612 265.040,178.067 264.546,176.789 263.511 C 175.757 262.675,174.331 262.812,173.297 263.845 C 172.597 264.546,171.852 264.050,172.209 263.121 C 173.117 260.754,177.555 261.236,178.634 263.819 C 179.828 266.678,179.208 271.169,177.782 269.985 C 177.372 269.645,177.051 269.626,176.695 269.921 C 176.417 270.152,175.472 270.414,174.595 270.503 L 173.000 270.666 174.676 270.733 C 175.598 270.770,176.464 270.620,176.601 270.399 C 176.765 270.133,177.120 270.143,177.650 270.427 C 179.205 271.259,179.716 270.221,179.509 266.646 C 179.253 262.227,176.980 260.241,173.600 261.484 M192.149 261.835 C 189.150 263.315,189.096 270.400,192.084 270.400 C 192.318 270.400,192.054 269.945,191.498 269.389 C 188.845 266.736,190.263 262.502,194.110 261.588 C 195.208 261.327,195.251 261.277,194.400 261.250 C 193.850 261.233,192.837 261.496,192.149 261.835 M113.208 262.204 C 116.805 264.064,115.445 270.400,111.450 270.400 C 108.453 270.400,107.053 268.928,107.100 265.828 C 107.152 262.419,110.166 260.631,113.208 262.204 M116.800 265.004 C 116.800 269.870,117.759 270.900,122.083 270.678 L 125.000 270.528 125.113 266.064 L 125.226 261.600 124.213 261.600 C 123.238 261.600,123.200 261.693,123.194 264.100 C 123.180 270.239,119.363 270.877,119.119 264.782 C 119.002 261.860,118.978 261.797,117.900 261.673 L 116.800 261.547 116.800 265.004 M127.232 262.336 C 127.251 262.752,127.339 262.813,127.465 262.500 C 127.721 261.865,128.683 261.849,128.892 262.475 C 129.007 262.820,129.291 262.782,129.924 262.339 C 130.764 261.750,130.729 261.726,128.999 261.699 C 127.567 261.678,127.206 261.808,127.232 262.336 M165.049 262.511 C 164.565 264.317,164.778 269.884,165.349 270.358 C 166.538 271.344,167.200 270.445,167.200 267.846 C 167.200 265.081,167.821 263.832,169.391 263.438 C 170.344 263.199,170.913 261.600,170.044 261.600 C 169.849 261.600,169.714 261.915,169.744 262.300 C 169.779 262.737,169.473 263.046,168.929 263.124 C 167.541 263.322,167.062 264.272,166.823 267.302 C 166.450 272.042,165.600 271.294,165.600 266.226 L 165.600 261.985 166.571 262.228 C 167.105 262.363,167.823 262.315,168.166 262.123 C 168.606 261.876,168.274 261.751,167.039 261.697 C 165.535 261.632,165.254 261.747,165.049 262.511 M180.446 262.500 C 180.483 263.212,180.532 263.249,180.680 262.677 C 181.159 260.829,182.997 263.591,183.888 267.500 C 184.213 268.924,184.641 268.571,185.589 266.100 C 186.074 264.835,186.631 263.395,186.827 262.900 C 187.429 261.379,188.426 261.737,187.940 263.300 C 187.178 265.750,187.186 266.199,187.963 264.600 C 189.051 262.362,189.017 261.600,187.829 261.600 C 187.010 261.600,186.726 261.961,186.020 263.900 C 184.493 268.098,184.646 268.052,183.416 264.678 C 182.246 261.472,180.321 260.059,180.446 262.500 M196.972 262.947 C 197.769 263.699,198.421 264.715,198.446 265.247 C 198.477 265.880,198.553 265.974,198.671 265.527 C 198.904 264.641,197.796 262.533,196.822 262.012 C 195.463 261.284,195.508 261.567,196.972 262.947 M118.400 264.140 C 118.400 268.245,119.783 270.146,121.953 269.025 C 123.210 268.374,123.600 267.174,123.600 263.950 C 123.600 262.483,123.749 262.000,124.200 262.000 C 124.695 262.000,124.800 262.733,124.800 266.200 C 124.800 270.329,124.636 270.876,123.680 269.920 C 123.307 269.547,123.093 269.547,122.720 269.920 C 119.961 272.679,115.695 266.899,117.335 262.624 C 117.846 261.295,118.400 262.085,118.400 264.140 M109.382 263.782 C 106.731 266.433,109.945 270.884,112.933 268.699 C 114.416 267.614,113.981 263.200,112.391 263.200 C 112.176 263.200,112.360 263.560,112.800 264.000 C 114.428 265.628,113.375 268.800,111.206 268.800 C 108.271 268.800,107.769 264.586,110.560 263.371 C 111.338 263.032,111.533 262.825,111.082 262.816 C 110.687 262.807,109.922 263.242,109.382 263.782 M192.900 263.212 C 190.988 263.981,191.771 265.200,194.176 265.200 C 196.681 265.200,197.340 264.605,196.019 263.535 C 195.029 262.734,194.283 262.656,192.900 263.212 M195.626 263.614 C 196.962 264.329,196.475 264.800,194.400 264.800 C 192.352 264.800,191.857 264.356,193.100 263.632 C 194.003 263.106,194.668 263.101,195.626 263.614 M180.800 263.699 C 180.800 266.303,184.039 271.317,185.242 270.574 C 185.824 270.215,187.336 266.802,187.043 266.510 C 186.920 266.386,186.711 266.626,186.580 267.043 C 185.099 271.744,183.962 271.468,182.014 265.936 C 181.399 264.191,180.800 263.087,180.800 263.699 M140.255 265.055 C 138.037 267.273,140.174 270.086,143.339 269.114 C 145.230 268.534,145.194 267.821,143.166 265.700 C 141.241 263.688,141.552 263.757,140.255 265.055 M143.081 266.078 C 145.023 267.960,144.704 268.800,142.047 268.800 C 140.680 268.800,140.000 268.135,140.000 266.800 C 140.000 264.582,141.238 264.292,143.081 266.078 M173.470 267.123 C 172.657 268.021,173.531 269.600,174.842 269.600 C 175.723 269.600,177.600 267.791,177.600 266.942 C 177.600 266.085,174.277 266.231,173.470 267.123 M191.600 266.826 C 191.600 268.778,194.376 270.138,195.741 268.855 C 196.783 267.877,197.600 267.744,197.600 268.554 C 197.600 269.375,195.926 270.323,194.156 270.505 L 192.600 270.666 194.294 270.733 C 196.149 270.806,198.819 269.002,198.240 268.065 C 197.836 267.411,196.592 267.486,196.000 268.200 C 195.046 269.349,192.000 268.579,192.000 267.188 C 192.000 266.993,193.395 266.772,195.100 266.697 L 198.200 266.561 194.900 266.480 C 192.781 266.429,191.600 266.553,191.600 266.826 M176.703 267.700 C 175.962 268.822,174.101 269.128,173.739 268.186 C 173.410 267.328,174.232 266.814,175.949 266.806 C 177.257 266.800,177.280 266.827,176.703 267.700 " stroke="none" fill="#90cfdc" fill-rule="evenodd"></path></g></svg>