<svg id="svg" version="1.1" xmlns="http://www.w3.org/2000/svg" xmlns:xlink="http://www.w3.org/1999/xlink" width="400" height="400" viewBox="0, 0, 400,400"><g id="svgg"><path id="path0" d="M0.000 200.000 L 0.000 400.000 200.000 400.000 L 400.000 400.000 400.000 200.000 L 400.000 0.000 200.000 0.000 L 0.000 0.000 0.000 200.000 M251.392 168.558 C 254.175 170.381,250.213 174.222,239.800 179.795 C 226.988 186.652,219.746 191.942,220.295 194.042 C 220.541 194.982,220.216 195.047,223.452 193.407 C 227.596 191.308,229.835 191.763,230.604 194.863 C 231.087 196.806,228.491 199.201,224.600 200.403 C 222.342 201.100,222.347 201.087,223.209 204.405 C 224.276 208.517,224.233 208.991,222.700 209.936 C 220.227 211.461,219.279 211.464,218.014 209.951 C 216.928 208.651,216.857 208.626,216.112 209.300 C 214.932 210.366,214.400 210.155,214.400 208.624 C 214.400 207.160,214.004 206.712,212.651 206.643 C 212.140 206.617,211.760 206.287,211.682 205.800 C 211.392 203.997,211.248 203.904,210.114 204.796 C 209.008 205.666,208.408 205.425,207.903 203.908 C 207.147 201.641,198.656 203.274,191.200 207.122 C 187.800 208.876,183.652 210.604,180.000 211.788 C 171.449 214.559,172.247 214.023,172.536 216.796 C 172.966 220.901,171.249 221.499,167.496 218.551 C 165.305 216.829,165.028 216.721,163.472 216.969 C 158.541 217.756,158.400 217.755,158.400 216.914 C 158.400 216.480,158.760 215.798,159.200 215.400 C 160.376 214.335,160.256 214.189,157.300 213.082 C 149.485 210.156,148.000 209.497,148.000 208.955 C 148.000 207.773,149.911 207.560,154.648 208.215 C 160.396 209.010,160.339 209.063,158.251 204.880 C 156.267 200.904,156.278 200.683,158.527 199.535 L 160.180 198.692 165.629 201.488 L 171.078 204.284 173.564 203.944 C 177.412 203.418,193.308 194.336,192.243 193.272 C 191.708 192.736,191.398 192.712,190.276 193.118 C 188.316 193.827,187.949 193.742,188.224 192.648 C 188.602 191.141,183.313 189.125,181.615 190.128 C 180.094 191.026,180.000 190.995,180.000 189.590 C 180.000 188.656,179.764 188.290,178.961 187.985 C 178.390 187.768,177.839 187.278,177.736 186.895 C 177.614 186.438,176.014 185.610,173.075 184.480 C 169.789 183.217,168.146 182.334,166.891 181.157 C 164.447 178.865,165.278 178.007,168.400 179.600 C 169.262 180.040,170.750 180.400,171.705 180.400 C 172.661 180.400,177.573 181.194,182.621 182.165 C 187.670 183.136,192.340 184.015,193.000 184.118 C 193.660 184.221,195.710 184.608,197.555 184.978 C 202.479 185.967,203.417 185.888,206.601 184.223 C 208.195 183.389,210.349 182.626,211.601 182.451 C 214.289 182.076,215.581 181.410,228.106 173.937 C 229.154 173.312,230.103 172.800,230.214 172.800 C 230.325 172.800,231.087 172.377,231.908 171.859 C 232.729 171.342,234.840 170.152,236.600 169.214 L 239.800 167.510 245.092 167.704 C 249.088 167.851,250.632 168.060,251.392 168.558 M196.808 235.216 C 197.024 235.618,197.200 236.139,197.200 236.374 C 197.200 237.011,195.609 236.888,195.357 236.231 C 194.792 234.760,192.800 235.309,192.800 236.936 C 192.800 237.821,196.630 242.000,197.440 242.000 C 197.698 242.000,198.203 241.550,198.563 241.000 C 200.001 238.806,200.943 240.027,199.551 242.280 L 198.702 243.654 199.751 244.749 C 201.348 246.416,200.076 247.317,198.342 245.747 C 197.686 245.154,197.534 245.151,196.669 245.718 C 192.041 248.751,186.893 244.255,190.409 240.251 C 191.487 239.023,191.566 238.763,191.144 237.838 C 189.753 234.784,195.222 232.252,196.808 235.216 M253.408 234.500 C 254.046 237.078,253.416 246.200,252.600 246.200 C 251.845 246.200,251.793 245.895,251.685 240.800 C 251.558 234.877,251.721 233.600,252.600 233.600 C 252.922 233.600,253.285 234.005,253.408 234.500 M156.600 234.800 C 156.600 235.204,156.113 235.440,155.111 235.523 L 153.623 235.647 153.511 240.923 C 153.404 246.031,153.372 246.204,152.512 246.326 C 151.637 246.451,151.622 246.372,151.512 241.126 L 151.400 235.800 150.000 235.671 C 148.420 235.526,147.778 235.083,148.187 234.421 C 148.645 233.680,156.600 234.038,156.600 234.800 M215.000 234.800 C 215.000 235.204,214.513 235.440,213.511 235.523 L 212.023 235.647 211.911 240.923 C 211.804 246.031,211.772 246.204,210.912 246.326 C 210.037 246.451,210.022 246.372,209.912 241.126 L 209.800 235.800 208.400 235.671 C 206.820 235.526,206.178 235.083,206.587 234.421 C 207.045 233.680,215.000 234.038,215.000 234.800 M165.317 238.406 C 169.450 241.657,165.408 248.455,160.677 246.210 C 157.929 244.906,157.313 240.727,159.572 238.709 C 161.134 237.312,163.751 237.175,165.317 238.406 M170.400 240.777 C 170.400 246.878,174.324 247.113,174.821 241.041 C 175.090 237.747,175.243 237.377,176.183 237.738 C 177.234 238.141,177.082 246.400,176.024 246.400 C 175.597 246.400,175.145 246.235,175.020 246.032 C 174.891 245.824,174.273 245.924,173.593 246.263 C 172.102 247.007,170.225 246.656,169.400 245.479 C 168.388 244.033,168.551 237.600,169.600 237.600 C 170.333 237.600,170.400 237.867,170.400 240.777 M180.612 238.019 C 180.790 238.308,181.040 238.299,181.414 237.989 C 182.152 237.376,183.800 237.660,183.800 238.400 C 183.800 238.730,183.414 239.055,182.942 239.122 C 181.415 239.340,180.849 240.432,180.720 243.409 C 180.613 245.893,180.512 246.200,179.800 246.200 C 179.006 246.200,178.345 239.763,178.972 238.130 C 179.214 237.498,180.247 237.428,180.612 238.019 M218.486 238.057 C 218.600 238.401,218.852 238.401,219.493 238.057 C 220.736 237.392,221.600 237.497,221.600 238.312 C 221.600 238.736,221.115 239.208,220.404 239.476 C 218.950 240.025,218.400 241.328,218.400 244.226 C 218.400 246.133,218.302 246.400,217.600 246.400 C 216.792 246.400,216.306 238.628,217.067 237.867 C 217.489 237.445,218.319 237.556,218.486 238.057 M229.656 238.364 C 230.499 239.047,230.615 239.516,230.739 242.745 L 230.878 246.361 229.339 246.410 C 228.493 246.437,227.053 246.483,226.140 246.511 C 221.426 246.660,222.124 241.583,226.904 240.948 C 228.389 240.751,228.810 240.542,228.716 240.046 C 228.517 238.995,226.092 238.974,224.986 240.013 C 223.365 241.536,222.525 240.170,224.070 238.526 C 225.207 237.316,228.251 237.228,229.656 238.364 M233.891 238.500 C 234.126 238.995,234.660 240.288,235.078 241.373 C 236.066 243.941,236.502 244.017,237.175 241.738 C 237.959 239.084,238.767 237.600,239.429 237.600 C 240.440 237.600,240.203 238.690,237.993 244.200 C 237.817 244.640,237.572 245.315,237.449 245.700 C 237.207 246.455,235.419 246.679,235.003 246.005 C 234.752 245.599,232.484 239.550,232.114 238.300 C 231.798 237.232,233.374 237.409,233.891 238.500 M248.194 238.233 C 249.252 238.926,250.292 241.468,249.743 242.017 C 249.554 242.206,248.049 242.415,246.400 242.480 C 243.727 242.587,243.400 242.685,243.400 243.385 C 243.400 244.924,245.381 245.532,247.132 244.531 C 249.148 243.378,250.225 243.884,248.856 245.341 C 245.615 248.790,241.234 246.044,241.540 240.755 C 241.691 238.135,245.717 236.610,248.194 238.233 M160.662 239.931 C 159.232 241.512,160.081 244.504,162.105 245.012 C 164.486 245.609,166.106 241.856,164.370 239.764 C 163.701 238.958,161.451 239.059,160.662 239.931 M243.861 239.932 C 242.971 240.916,243.370 241.200,245.643 241.200 C 247.695 241.200,248.359 240.715,247.585 239.782 C 246.903 238.960,244.659 239.050,243.861 239.932 M191.829 241.029 C 189.947 242.910,191.751 245.582,194.497 244.979 C 196.270 244.589,196.292 243.733,194.572 241.972 C 192.843 240.200,192.704 240.153,191.829 241.029 M225.500 242.832 C 224.504 243.412,224.634 244.342,225.784 244.865 C 227.001 245.420,228.800 244.421,228.800 243.191 C 228.800 242.299,226.790 242.081,225.500 242.832 " stroke="none" fill="#fffaff" fill-rule="evenodd"></path><path id="path1" d="M236.706 169.948 C 234.668 171.019,230.750 173.200,228.000 174.796 C 225.250 176.391,222.370 178.057,221.600 178.497 C 220.830 178.938,218.760 180.126,217.000 181.137 C 214.840 182.379,213.280 182.999,212.200 183.046 C 210.335 183.128,208.525 183.785,205.965 185.308 C 204.006 186.474,202.324 186.660,199.477 186.027 C 198.555 185.822,196.630 185.449,195.200 185.197 C 192.514 184.724,190.057 184.263,186.600 183.582 C 175.903 181.475,173.570 181.082,172.063 181.130 C 171.052 181.163,169.571 180.842,168.524 180.365 C 166.180 179.298,166.013 179.555,168.010 181.160 C 169.545 182.394,173.027 184.006,176.700 185.183 C 177.635 185.483,178.400 185.978,178.400 186.283 C 178.400 186.588,178.949 187.144,179.619 187.519 C 180.529 188.027,180.798 188.425,180.677 189.089 C 180.520 189.952,180.546 189.959,181.606 189.333 C 183.216 188.382,188.914 190.588,189.012 192.200 C 189.035 192.575,189.280 192.565,190.815 192.127 C 191.417 191.955,193.600 193.379,193.600 193.944 C 193.600 194.101,192.475 194.881,191.100 195.677 C 189.725 196.473,185.939 198.664,182.687 200.547 C 174.483 205.296,172.143 205.807,168.486 203.651 C 162.506 200.125,160.133 199.334,158.435 200.300 C 156.918 201.164,156.865 200.729,159.001 204.982 C 161.240 209.440,161.261 209.754,159.300 209.469 C 151.710 208.366,146.171 208.343,149.433 209.429 C 153.826 210.891,160.794 213.904,160.797 214.342 C 160.799 214.641,160.337 215.249,159.771 215.694 C 158.151 216.968,159.126 217.303,162.265 216.550 L 165.068 215.877 167.759 217.939 C 171.313 220.663,172.000 220.420,172.000 216.442 L 172.000 213.711 174.900 212.810 C 184.005 209.980,186.472 208.954,195.326 204.313 C 196.467 203.715,197.940 203.213,198.600 203.198 C 199.260 203.183,200.970 202.856,202.400 202.473 C 205.078 201.754,208.380 202.540,208.871 204.014 C 208.981 204.342,209.315 204.331,210.099 203.973 C 211.402 203.380,212.574 204.092,212.261 205.288 C 212.114 205.852,212.235 205.979,212.760 205.813 C 213.721 205.508,215.368 207.314,215.092 208.370 C 214.892 209.133,214.944 209.146,215.984 208.608 C 217.025 208.070,217.150 208.104,218.218 209.219 C 219.630 210.692,220.849 210.716,222.365 209.300 L 223.543 208.200 222.601 204.600 C 221.598 200.769,221.767 200.000,223.613 200.000 C 226.959 200.000,230.873 196.260,229.631 194.250 C 228.291 192.082,227.408 192.068,223.310 194.144 C 220.704 195.465,220.082 195.468,219.755 194.163 C 219.185 191.890,225.750 186.665,236.400 180.915 C 243.472 177.097,245.123 176.109,247.988 173.985 C 253.020 170.254,253.084 169.290,248.354 168.463 C 242.909 167.511,240.841 167.774,236.706 169.948 " stroke="none" fill="#fc6f38" fill-rule="evenodd"></path><path id="path2" d="M252.256 233.878 C 251.650 234.483,251.978 246.400,252.600 246.400 C 253.107 246.400,253.200 245.447,253.200 240.224 C 253.200 234.605,252.983 233.150,252.256 233.878 M192.056 234.646 C 191.270 235.196,191.153 235.577,191.267 237.213 C 191.378 238.812,191.235 239.309,190.409 240.189 C 187.060 243.759,192.364 248.539,196.597 245.765 C 197.482 245.186,197.644 245.186,198.472 245.765 C 200.376 247.099,201.349 246.512,199.800 244.964 C 198.642 243.806,198.612 243.649,199.346 242.589 C 201.038 240.144,200.189 239.033,198.344 241.278 L 197.288 242.563 195.024 240.207 C 191.916 236.973,192.304 233.092,195.441 236.039 C 196.891 237.401,197.678 236.441,196.267 235.031 C 195.076 233.839,193.423 233.688,192.056 234.646 M148.000 234.800 C 148.000 235.020,148.585 235.203,149.300 235.206 C 151.489 235.216,151.565 235.401,151.687 241.011 C 151.787 245.573,151.883 246.206,152.500 246.324 C 153.137 246.447,153.200 245.998,153.200 241.309 C 153.200 235.631,153.361 235.200,155.480 235.200 C 156.206 235.200,156.800 235.020,156.800 234.800 C 156.800 234.558,155.067 234.400,152.400 234.400 C 149.733 234.400,148.000 234.558,148.000 234.800 M206.400 234.800 C 206.400 235.020,206.985 235.203,207.700 235.206 C 209.889 235.216,209.965 235.401,210.087 241.011 C 210.187 245.573,210.283 246.206,210.900 246.324 C 211.537 246.447,211.600 245.998,211.600 241.309 C 211.600 235.631,211.761 235.200,213.880 235.200 C 214.606 235.200,215.200 235.020,215.200 234.800 C 215.200 234.558,213.467 234.400,210.800 234.400 C 208.133 234.400,206.400 234.558,206.400 234.800 M159.631 238.831 C 156.683 241.778,158.487 246.400,162.585 246.400 C 165.558 246.400,166.600 245.239,166.600 241.930 C 166.600 237.774,162.508 235.954,159.631 238.831 M169.075 237.858 C 168.289 238.644,168.799 244.660,169.726 245.530 C 170.771 246.512,173.506 246.734,174.337 245.903 C 174.732 245.508,174.903 245.520,175.176 245.962 C 175.369 246.273,175.807 246.406,176.174 246.265 C 177.181 245.879,176.926 237.872,175.900 237.675 C 175.297 237.560,175.200 237.870,175.200 239.911 C 175.200 242.910,174.604 244.652,173.475 244.954 C 171.102 245.591,170.635 245.014,170.400 241.147 C 170.217 238.150,169.806 237.128,169.075 237.858 M179.200 242.000 C 179.200 247.489,180.113 248.405,180.541 243.344 C 180.805 240.216,181.352 239.242,182.857 239.213 C 183.750 239.195,184.150 238.032,183.366 237.732 C 183.025 237.601,182.305 237.730,181.765 238.019 C 181.011 238.422,180.674 238.434,180.312 238.072 C 179.361 237.121,179.200 237.688,179.200 242.000 M216.972 238.130 C 216.414 239.583,217.001 246.191,217.700 246.325 C 218.308 246.441,218.400 246.120,218.400 243.883 C 218.400 241.055,219.362 239.200,220.829 239.200 C 221.333 239.200,221.600 238.923,221.600 238.400 C 221.600 237.493,220.452 237.308,219.670 238.090 C 219.283 238.477,219.015 238.477,218.395 238.090 C 217.404 237.471,217.222 237.476,216.972 238.130 M224.261 238.648 C 222.583 240.326,223.564 241.042,225.540 239.581 C 226.454 238.905,226.841 238.835,227.753 239.182 C 229.616 239.890,228.967 240.954,226.487 241.257 C 220.920 241.938,221.993 246.575,227.649 246.275 L 230.600 246.118 230.586 242.876 C 230.564 237.853,227.263 235.646,224.261 238.648 M232.293 237.840 C 232.161 237.972,232.206 238.467,232.392 238.940 C 232.579 239.413,233.307 241.285,234.011 243.100 C 235.649 247.326,236.683 247.561,237.973 244.000 C 238.538 242.443,238.885 241.537,239.550 239.881 C 240.190 238.290,240.115 237.519,239.335 237.671 C 238.915 237.752,238.285 238.879,237.624 240.732 C 236.197 244.733,236.125 244.694,233.909 238.700 C 233.527 237.666,232.836 237.298,232.293 237.840 M242.769 238.769 C 238.952 242.587,244.386 249.254,248.325 245.584 C 249.844 244.169,249.088 243.354,247.424 244.613 C 245.918 245.752,243.200 244.828,243.200 243.177 C 243.200 242.472,243.498 242.400,246.400 242.400 L 249.600 242.400 249.600 241.055 C 249.600 237.788,245.217 236.321,242.769 238.769 M164.612 240.139 C 166.612 242.994,163.658 246.517,160.889 244.577 C 159.872 243.865,159.653 241.090,160.523 239.947 C 161.507 238.653,163.642 238.753,164.612 240.139 M247.500 239.698 C 248.739 240.689,248.040 241.242,245.700 241.120 C 243.151 240.987,242.601 240.226,244.400 239.321 C 245.406 238.814,246.573 238.957,247.500 239.698 M194.962 242.100 L 196.391 243.800 195.551 244.500 C 193.643 246.090,190.456 244.670,190.987 242.465 C 191.583 239.993,193.076 239.855,194.962 242.100 M228.800 243.069 C 228.800 243.976,227.635 245.200,226.771 245.200 C 224.960 245.200,224.178 243.982,225.280 242.880 C 226.048 242.112,228.800 242.259,228.800 243.069 " stroke="none" fill="#238b9b" fill-rule="evenodd"></path><path id="path3" d="M236.100 169.831 C 234.285 170.830,232.800 171.739,232.800 171.852 C 232.800 171.964,234.113 171.331,235.717 170.446 C 237.321 169.560,239.076 168.659,239.617 168.443 C 240.158 168.227,240.330 168.043,240.000 168.033 C 239.670 168.023,237.915 168.832,236.100 169.831 M247.800 168.400 C 248.460 168.568,249.450 168.709,250.000 168.713 L 251.000 168.720 250.000 168.400 C 249.450 168.224,248.460 168.083,247.800 168.087 L 246.600 168.095 247.800 168.400 M250.834 171.753 L 249.869 173.000 251.013 171.912 C 251.643 171.314,252.077 170.753,251.979 170.665 C 251.880 170.577,251.365 171.067,250.834 171.753 M230.001 173.227 C 228.791 173.893,227.621 174.630,227.401 174.863 C 226.974 175.316,231.538 172.901,232.180 172.335 C 232.855 171.740,232.247 171.989,230.001 173.227 M248.000 174.049 C 246.606 175.271,246.605 175.272,247.888 174.419 C 248.596 173.948,249.282 173.391,249.412 173.181 C 249.797 172.557,249.477 172.754,248.000 174.049 M225.500 175.829 C 224.005 176.640,224.096 176.978,225.600 176.200 C 226.260 175.859,226.800 175.494,226.800 175.390 C 226.800 175.132,226.757 175.147,225.500 175.829 M222.700 177.429 C 222.095 177.757,221.600 178.110,221.600 178.213 C 221.600 178.599,222.232 178.357,223.200 177.600 C 224.389 176.670,224.211 176.609,222.700 177.429 M242.700 177.429 C 242.095 177.757,241.600 178.110,241.600 178.213 C 241.600 178.599,242.232 178.357,243.200 177.600 C 244.389 176.670,244.211 176.609,242.700 177.429 M219.300 179.426 C 218.365 179.987,217.600 180.540,217.600 180.655 C 217.600 180.871,220.299 179.338,220.980 178.736 C 221.667 178.128,221.027 178.391,219.300 179.426 M239.100 179.426 C 238.055 179.970,237.200 180.505,237.200 180.614 C 237.200 180.724,238.100 180.357,239.200 179.800 C 240.300 179.243,241.200 178.700,241.200 178.593 C 241.200 178.329,241.236 178.314,239.100 179.426 M165.600 179.412 C 165.600 179.714,168.343 182.106,169.353 182.686 C 170.731 183.476,171.105 183.264,169.800 182.432 C 167.538 180.991,166.040 179.516,167.150 179.823 C 167.795 180.001,168.012 179.943,167.826 179.643 C 167.556 179.205,165.600 179.002,165.600 179.412 M170.500 181.076 C 170.885 181.176,171.515 181.176,171.900 181.076 C 172.285 180.975,171.970 180.893,171.200 180.893 C 170.430 180.893,170.115 180.975,170.500 181.076 M173.233 180.947 C 173.325 181.028,174.120 181.204,175.000 181.338 C 176.115 181.507,176.358 181.471,175.800 181.219 C 175.032 180.871,172.890 180.644,173.233 180.947 M178.200 182.000 C 178.860 182.168,179.760 182.314,180.200 182.325 L 181.000 182.344 180.200 182.000 C 179.760 181.811,178.860 181.665,178.200 181.675 L 177.000 181.695 178.200 182.000 M214.200 182.235 C 213.676 182.635,212.963 182.764,212.131 182.610 C 211.433 182.481,210.777 182.516,210.672 182.688 C 210.323 183.258,213.313 183.162,214.466 182.566 C 215.090 182.243,215.600 181.894,215.600 181.790 C 215.600 181.434,215.001 181.624,214.200 182.235 M233.900 182.229 C 233.295 182.557,232.800 182.910,232.800 183.013 C 232.800 183.399,233.432 183.157,234.400 182.400 C 235.589 181.470,235.411 181.409,233.900 182.229 M182.400 182.800 C 182.950 182.976,183.760 183.126,184.200 183.132 L 185.000 183.144 184.200 182.800 C 183.760 182.611,182.950 182.462,182.400 182.468 L 181.400 182.480 182.400 182.800 M186.600 183.600 C 187.040 183.789,187.760 183.944,188.200 183.944 L 189.000 183.944 188.200 183.600 C 187.760 183.411,187.040 183.256,186.600 183.256 L 185.800 183.256 186.600 183.600 M208.400 183.600 C 207.867 183.945,207.867 183.988,208.400 183.988 C 208.730 183.988,209.270 183.813,209.600 183.600 C 210.133 183.255,210.133 183.212,209.600 183.212 C 209.270 183.212,208.730 183.387,208.400 183.600 M231.100 183.829 C 229.605 184.640,229.696 184.978,231.200 184.200 C 231.860 183.859,232.400 183.494,232.400 183.390 C 232.400 183.132,232.357 183.147,231.100 183.829 M190.800 184.400 C 191.350 184.576,192.340 184.717,193.000 184.713 L 194.200 184.705 193.000 184.400 C 192.340 184.232,191.350 184.091,190.800 184.087 L 189.800 184.080 190.800 184.400 M175.600 185.200 C 175.930 185.413,176.470 185.588,176.800 185.588 C 177.333 185.588,177.333 185.545,176.800 185.200 C 176.470 184.987,175.930 184.812,175.600 184.812 C 175.067 184.812,175.067 184.855,175.600 185.200 M195.200 185.200 C 195.750 185.376,196.560 185.526,197.000 185.532 L 197.800 185.544 197.000 185.200 C 196.560 185.011,195.750 184.862,195.200 184.868 L 194.200 184.880 195.200 185.200 M178.046 186.500 C 178.553 187.463,179.161 187.984,179.789 187.994 C 180.003 187.997,179.778 187.720,179.289 187.377 C 178.800 187.035,178.400 186.495,178.400 186.177 C 178.400 185.860,178.214 185.600,177.986 185.600 C 177.718 185.600,177.739 185.918,178.046 186.500 M199.600 186.000 C 200.150 186.176,200.960 186.320,201.400 186.320 C 202.033 186.320,201.992 186.254,201.200 186.000 C 200.650 185.824,199.840 185.680,199.400 185.680 C 198.767 185.680,198.808 185.746,199.600 186.000 M203.600 186.000 C 203.067 186.345,203.067 186.388,203.600 186.388 C 203.930 186.388,204.470 186.213,204.800 186.000 C 205.333 185.655,205.333 185.612,204.800 185.612 C 204.470 185.612,203.930 185.787,203.600 186.000 M227.100 186.229 C 225.605 187.040,225.696 187.378,227.200 186.600 C 227.860 186.259,228.400 185.894,228.400 185.790 C 228.400 185.532,228.357 185.547,227.100 186.229 M222.451 190.149 C 220.361 192.253,219.577 193.313,219.714 193.849 C 219.895 194.552,219.910 194.550,219.954 193.809 C 219.979 193.375,221.300 191.710,222.890 190.109 C 224.479 188.509,225.690 187.200,225.580 187.200 C 225.470 187.200,224.062 188.527,222.451 190.149 M180.323 189.000 C 180.001 190.529,180.080 190.586,181.502 189.851 C 182.148 189.516,183.110 189.328,183.639 189.432 L 184.600 189.621 183.667 189.135 C 182.944 188.758,182.563 188.756,181.973 189.124 C 180.948 189.764,180.877 189.740,180.716 188.700 C 180.595 187.921,180.542 187.961,180.323 189.000 M186.800 190.571 C 186.800 190.665,187.385 191.023,188.100 191.366 L 189.400 191.992 188.456 191.196 C 187.582 190.460,186.800 190.164,186.800 190.571 M190.019 192.380 C 189.700 192.582,189.307 192.666,189.147 192.567 C 188.986 192.468,188.725 192.598,188.565 192.856 C 188.280 193.318,188.393 193.304,190.723 192.573 C 191.136 192.444,191.862 192.684,192.416 193.132 L 193.385 193.918 191.893 194.798 C 189.886 195.982,189.979 196.288,192.000 195.152 C 193.889 194.090,193.930 193.917,192.546 192.829 C 191.386 191.917,190.890 191.829,190.019 192.380 M226.600 192.434 C 225.913 192.759,225.947 192.784,226.835 192.615 C 227.964 192.399,228.726 192.865,229.741 194.389 C 230.104 194.933,230.400 195.177,230.400 194.931 C 230.400 194.381,228.208 191.989,227.740 192.028 C 227.553 192.044,227.040 192.226,226.600 192.434 M223.100 193.826 C 222.055 194.370,221.200 194.905,221.200 195.014 C 221.200 195.193,225.160 193.323,225.567 192.952 C 226.062 192.501,224.761 192.962,223.100 193.826 M188.100 197.026 C 187.165 197.587,186.400 198.140,186.400 198.255 C 186.400 198.471,189.099 196.938,189.780 196.336 C 190.467 195.728,189.827 195.991,188.100 197.026 M184.400 199.233 L 183.400 200.048 184.700 199.414 C 185.415 199.065,186.000 198.694,186.000 198.590 C 186.000 198.192,185.363 198.448,184.400 199.233 M225.800 199.222 C 224.920 199.638,224.434 199.984,224.720 199.990 C 225.302 200.001,227.600 198.884,227.600 198.590 C 227.600 198.356,227.718 198.314,225.800 199.222 M158.400 200.042 L 157.400 200.867 158.689 200.154 C 159.908 199.479,160.054 199.478,161.402 200.120 C 163.326 201.038,163.742 200.954,162.000 200.000 C 160.212 199.021,159.630 199.028,158.400 200.042 M181.600 200.836 C 180.936 201.379,180.869 201.515,181.400 201.240 C 182.705 200.566,183.428 200.012,183.000 200.015 C 182.780 200.017,182.150 200.386,181.600 200.836 M222.256 200.510 C 221.687 200.926,221.638 201.201,221.991 202.010 C 222.386 202.916,222.408 202.924,222.247 202.094 C 222.117 201.424,222.349 201.037,223.136 200.610 C 223.777 200.262,223.952 200.026,223.576 200.016 C 223.234 200.007,222.639 200.229,222.256 200.510 M178.800 202.433 L 177.800 203.248 179.100 202.614 C 179.815 202.265,180.400 201.894,180.400 201.790 C 180.400 201.392,179.763 201.648,178.800 202.433 M204.200 201.955 C 203.668 202.066,204.066 202.296,205.386 202.642 C 206.479 202.927,207.418 203.115,207.475 203.059 C 207.757 202.777,204.892 201.811,204.200 201.955 M166.800 202.579 C 166.800 202.689,167.340 203.059,168.000 203.400 C 168.660 203.741,169.200 203.931,169.200 203.821 C 169.200 203.711,168.660 203.341,168.000 203.000 C 167.340 202.659,166.800 202.469,166.800 202.579 M201.000 202.800 L 200.200 203.144 201.000 203.166 C 201.440 203.178,202.070 203.013,202.400 202.800 C 203.195 202.286,202.196 202.286,201.000 202.800 M196.800 203.600 C 196.005 204.114,197.004 204.114,198.200 203.600 L 199.000 203.256 198.200 203.234 C 197.760 203.222,197.130 203.387,196.800 203.600 M208.392 203.900 C 208.846 204.836,209.772 205.092,210.200 204.400 C 210.635 203.697,211.614 203.971,211.988 204.900 C 212.232 205.509,212.357 205.590,212.375 205.149 C 212.419 204.003,211.322 203.416,210.142 203.954 C 209.268 204.352,209.017 204.314,208.531 203.713 C 208.006 203.062,207.994 203.079,208.392 203.900 M222.456 204.000 C 222.456 204.330,222.611 204.960,222.800 205.400 C 223.017 205.904,223.144 205.978,223.144 205.600 C 223.144 205.270,222.989 204.640,222.800 204.200 C 222.583 203.696,222.456 203.622,222.456 204.000 M172.800 204.400 L 171.400 204.695 172.800 204.707 C 173.570 204.715,174.650 204.576,175.200 204.400 L 176.200 204.080 175.200 204.093 C 174.650 204.100,173.570 204.238,172.800 204.400 M193.694 205.080 C 192.777 205.675,192.091 206.224,192.168 206.301 C 192.245 206.378,193.174 205.892,194.232 205.220 C 195.291 204.549,195.977 204.000,195.758 204.000 C 195.539 204.000,194.610 204.486,193.694 205.080 M212.400 206.000 C 211.929 206.305,212.026 206.389,212.851 206.394 C 214.215 206.402,214.958 207.317,214.637 208.595 C 214.380 209.621,215.257 210.078,215.800 209.200 C 216.239 208.490,217.433 208.774,218.325 209.800 C 218.803 210.350,219.511 210.789,219.897 210.775 C 220.498 210.753,220.484 210.701,219.800 210.418 C 219.360 210.236,218.570 209.625,218.045 209.059 C 217.305 208.263,216.928 208.118,216.371 208.415 C 215.367 208.953,215.200 208.904,215.200 208.070 C 215.200 207.668,214.783 206.948,214.274 206.470 C 213.219 205.479,213.210 205.476,212.400 206.000 M223.350 207.497 C 223.473 208.131,223.174 208.687,222.331 209.397 C 221.675 209.949,221.287 210.394,221.469 210.386 C 222.628 210.335,224.013 208.511,223.603 207.574 C 223.211 206.677,223.191 206.671,223.350 207.497 M160.145 208.304 C 160.191 208.889,159.880 208.988,158.200 208.926 C 156.528 208.864,156.397 208.905,157.400 209.179 C 160.104 209.915,162.268 208.955,160.445 207.828 C 160.250 207.707,160.115 207.922,160.145 208.304 M148.900 208.265 C 148.306 208.504,148.224 209.600,148.800 209.600 C 149.020 209.600,149.155 209.375,149.100 209.100 C 149.027 208.734,149.748 208.616,151.800 208.661 C 153.815 208.705,154.264 208.634,153.400 208.408 C 152.016 208.047,149.630 207.970,148.900 208.265 M150.000 210.000 C 150.330 210.213,150.870 210.388,151.200 210.388 C 151.733 210.388,151.733 210.345,151.200 210.000 C 150.870 209.787,150.330 209.612,150.000 209.612 C 149.467 209.612,149.467 209.655,150.000 210.000 M176.200 212.400 C 175.696 212.617,175.622 212.744,176.000 212.744 C 176.330 212.744,176.960 212.589,177.400 212.400 C 177.904 212.183,177.978 212.056,177.600 212.056 C 177.270 212.056,176.640 212.211,176.200 212.400 M173.600 213.200 C 173.067 213.545,173.067 213.588,173.600 213.588 C 173.930 213.588,174.470 213.413,174.800 213.200 C 175.333 212.855,175.333 212.812,174.800 212.812 C 174.470 212.812,173.930 212.987,173.600 213.200 M160.220 214.033 C 160.367 214.270,159.998 214.976,159.400 215.600 C 157.898 217.168,158.992 218.405,160.800 217.182 C 161.250 216.877,161.135 216.837,160.344 217.020 C 158.884 217.358,158.587 216.626,159.796 215.674 C 160.806 214.880,161.164 213.600,160.376 213.600 C 160.143 213.600,160.073 213.795,160.220 214.033 M162.800 216.434 C 162.022 216.709,162.168 216.745,163.462 216.595 C 164.951 216.423,165.374 216.590,167.517 218.201 C 168.833 219.191,170.031 220.000,170.179 220.000 C 170.327 220.000,169.274 219.100,167.838 218.000 C 165.200 215.978,164.608 215.794,162.800 216.434 M172.000 218.313 C 172.000 218.779,171.685 219.344,171.300 219.568 C 170.641 219.952,170.641 219.976,171.292 219.988 C 171.986 220.000,172.740 218.207,172.248 217.715 C 172.112 217.578,172.000 217.848,172.000 218.313 " stroke="none" fill="#fcac94" fill-rule="evenodd"></path><path id="path4" d="M241.715 167.896 C 242.988 167.976,244.968 167.975,246.115 167.894 C 247.262 167.814,246.220 167.749,243.800 167.750 C 241.380 167.751,240.442 167.816,241.715 167.896 M237.500 168.629 C 235.949 169.470,236.125 169.761,237.700 168.959 C 239.208 168.193,239.475 167.994,238.967 168.016 C 238.765 168.025,238.105 168.301,237.500 168.629 M249.233 168.144 C 249.325 168.223,249.940 168.408,250.600 168.556 C 251.476 168.752,251.638 168.715,251.200 168.418 C 250.660 168.053,248.832 167.798,249.233 168.144 M252.054 170.078 C 251.994 171.277,249.503 173.518,244.976 176.446 C 242.200 178.241,241.440 179.037,243.900 177.572 C 248.845 174.629,252.540 171.263,252.287 169.933 C 252.123 169.076,252.104 169.088,252.054 170.078 M233.300 171.029 C 231.925 171.809,230.800 172.539,230.800 172.653 C 230.800 172.874,235.148 170.506,235.780 169.940 C 236.484 169.310,235.813 169.605,233.300 171.029 M225.800 175.251 C 224.260 176.136,222.820 177.052,222.600 177.286 C 222.149 177.766,226.546 175.367,228.034 174.321 C 229.661 173.178,228.742 173.560,225.800 175.251 M220.700 178.229 C 219.205 179.040,219.296 179.378,220.800 178.600 C 221.460 178.259,222.000 177.894,222.000 177.790 C 222.000 177.532,221.957 177.547,220.700 178.229 M165.467 179.067 C 165.320 179.213,165.203 179.528,165.206 179.767 C 165.210 180.060,165.307 180.053,165.506 179.746 C 165.668 179.497,166.160 179.203,166.600 179.093 C 167.374 178.899,167.373 178.891,166.567 178.846 C 166.108 178.821,165.613 178.920,165.467 179.067 M167.600 179.376 C 167.600 180.028,170.228 180.793,172.280 180.737 L 174.600 180.674 172.000 180.430 C 170.570 180.295,168.995 179.957,168.500 179.678 C 168.005 179.400,167.600 179.264,167.600 179.376 M217.800 180.000 C 217.140 180.437,216.780 180.792,217.000 180.788 C 217.401 180.782,219.576 179.223,219.200 179.212 C 219.090 179.208,218.460 179.563,217.800 180.000 M167.667 181.700 C 168.493 182.525,169.401 183.195,169.685 183.188 C 169.968 183.181,169.840 182.977,169.400 182.735 C 168.960 182.493,168.052 181.823,167.382 181.247 C 166.704 180.664,166.830 180.865,167.667 181.700 M237.500 180.629 C 236.005 181.440,236.096 181.778,237.600 181.000 C 238.260 180.659,238.800 180.294,238.800 180.190 C 238.800 179.932,238.757 179.947,237.500 180.629 M175.800 181.181 C 176.568 181.529,178.710 181.756,178.367 181.453 C 178.275 181.372,177.480 181.196,176.600 181.062 C 175.485 180.893,175.242 180.929,175.800 181.181 M180.200 181.981 C 180.968 182.329,183.110 182.556,182.767 182.253 C 182.675 182.172,181.880 181.996,181.000 181.862 C 179.885 181.693,179.642 181.729,180.200 181.981 M213.200 182.225 C 212.234 182.591,212.055 182.762,212.624 182.777 C 213.076 182.790,213.796 182.536,214.224 182.213 C 215.135 181.523,215.053 181.524,213.200 182.225 M234.400 182.436 C 233.736 182.979,233.669 183.115,234.200 182.840 C 235.505 182.166,236.228 181.612,235.800 181.615 C 235.580 181.617,234.950 181.986,234.400 182.436 M184.200 182.781 C 184.968 183.129,187.110 183.356,186.767 183.053 C 186.675 182.972,185.880 182.796,185.000 182.662 C 183.885 182.493,183.642 182.529,184.200 182.781 M188.200 183.581 C 188.968 183.929,191.110 184.156,190.767 183.853 C 190.675 183.772,189.880 183.596,189.000 183.462 C 187.885 183.293,187.642 183.329,188.200 183.581 M206.200 184.400 C 205.100 185.052,204.419 185.589,204.686 185.593 C 204.953 185.597,206.024 185.060,207.064 184.400 C 209.510 182.849,208.815 182.849,206.200 184.400 M230.525 184.531 C 227.568 186.339,227.358 186.775,230.200 185.205 C 232.747 183.799,233.619 183.179,232.980 183.231 C 232.771 183.247,231.666 183.832,230.525 184.531 M192.033 184.147 C 192.125 184.228,192.920 184.404,193.800 184.538 C 194.915 184.707,195.158 184.671,194.600 184.419 C 193.832 184.071,191.690 183.844,192.033 184.147 M197.000 185.181 C 197.768 185.529,199.910 185.756,199.567 185.453 C 199.475 185.372,198.680 185.196,197.800 185.062 C 196.685 184.893,196.442 184.929,197.000 185.181 M176.810 185.858 C 177.146 185.950,177.596 186.412,177.810 186.886 C 178.025 187.360,178.470 187.819,178.800 187.905 C 179.187 188.005,179.244 187.944,178.960 187.730 C 178.718 187.549,178.306 186.995,178.046 186.500 C 177.785 186.005,177.263 185.621,176.886 185.646 C 176.342 185.683,176.326 185.727,176.810 185.858 M201.510 186.057 C 202.296 186.280,203.080 186.283,203.468 186.066 C 203.925 185.810,203.540 185.701,202.158 185.694 C 200.284 185.686,200.256 185.701,201.510 186.057 M226.200 187.157 C 225.540 187.572,223.830 189.142,222.400 190.646 L 219.800 193.381 223.005 190.391 C 224.768 188.746,226.568 187.186,227.005 186.924 C 227.442 186.661,227.710 186.437,227.600 186.425 C 227.490 186.413,226.860 186.742,226.200 187.157 M187.943 191.520 C 188.281 191.756,188.384 192.221,188.216 192.750 C 187.885 193.793,188.545 193.860,190.454 192.978 C 191.702 192.402,191.092 192.438,189.165 193.056 C 188.709 193.202,188.540 193.009,188.565 192.370 C 188.584 191.881,188.330 191.404,188.000 191.310 C 187.515 191.172,187.504 191.212,187.943 191.520 M229.146 193.159 C 229.726 193.796,230.276 194.246,230.368 194.157 C 230.577 193.959,228.768 192.000,228.376 192.000 C 228.220 192.000,228.566 192.521,229.146 193.159 M192.310 193.210 C 192.732 193.681,192.662 193.910,191.910 194.517 C 191.019 195.238,191.019 195.245,191.878 194.825 C 193.127 194.214,193.293 193.768,192.496 193.165 C 191.900 192.714,191.873 192.721,192.310 193.210 M220.046 194.076 C 219.985 194.970,220.749 195.412,221.335 194.821 C 221.689 194.464,221.642 194.413,221.135 194.606 C 220.691 194.775,220.407 194.616,220.281 194.129 C 220.120 193.504,220.086 193.496,220.046 194.076 M189.500 195.829 C 188.005 196.640,188.096 196.978,189.600 196.200 C 190.260 195.859,190.800 195.494,190.800 195.390 C 190.800 195.132,190.757 195.147,189.500 195.829 M186.600 197.600 C 185.940 198.037,185.580 198.392,185.800 198.388 C 186.201 198.382,188.376 196.823,188.000 196.812 C 187.890 196.808,187.260 197.163,186.600 197.600 M227.837 198.431 C 226.537 199.294,225.639 200.000,225.842 200.000 C 226.270 200.000,230.400 197.272,230.400 196.989 C 230.400 196.724,230.455 196.693,227.837 198.431 M183.900 199.029 C 183.295 199.357,182.800 199.710,182.800 199.813 C 182.800 200.199,183.432 199.957,184.400 199.200 C 185.589 198.270,185.411 198.209,183.900 199.029 M157.900 199.829 C 157.295 200.157,156.800 200.510,156.800 200.613 C 156.800 200.999,157.432 200.757,158.400 200.000 C 159.589 199.070,159.411 199.009,157.900 199.829 M162.000 200.000 C 162.770 200.422,163.580 200.766,163.800 200.766 C 164.020 200.766,163.570 200.422,162.800 200.000 C 162.030 199.578,161.220 199.234,161.000 199.234 C 160.780 199.234,161.230 199.578,162.000 200.000 M181.000 200.800 C 180.340 201.237,179.980 201.592,180.200 201.588 C 180.601 201.582,182.776 200.023,182.400 200.012 C 182.290 200.008,181.660 200.363,181.000 200.800 M166.000 201.779 C 166.000 201.889,166.540 202.259,167.200 202.600 C 167.860 202.941,168.400 203.131,168.400 203.021 C 168.400 202.911,167.860 202.541,167.200 202.200 C 166.540 201.859,166.000 201.669,166.000 201.779 M178.300 202.229 C 177.695 202.557,177.200 202.910,177.200 203.013 C 177.200 203.399,177.832 203.157,178.800 202.400 C 179.989 201.470,179.811 201.409,178.300 202.229 M222.468 202.600 C 222.462 203.040,222.611 203.760,222.800 204.200 C 223.238 205.219,223.238 204.168,222.800 202.800 C 222.543 201.996,222.477 201.957,222.468 202.600 M202.542 202.706 C 202.290 202.868,203.190 203.021,204.542 203.047 C 206.227 203.078,206.685 202.997,206.000 202.786 C 204.672 202.379,203.108 202.343,202.542 202.706 M198.200 203.610 C 197.666 203.847,197.998 203.886,199.200 203.727 C 200.190 203.596,201.075 203.424,201.167 203.344 C 201.514 203.043,198.964 203.272,198.200 203.610 M207.598 203.700 C 207.834 203.975,208.254 204.529,208.531 204.931 C 209.014 205.633,209.074 205.628,210.017 204.811 C 210.985 203.973,210.986 203.968,210.062 204.480 C 209.226 204.943,209.057 204.901,208.513 204.100 C 208.177 203.605,207.737 203.200,207.535 203.200 C 207.334 203.200,207.362 203.425,207.598 203.700 M158.791 205.982 C 159.902 208.184,159.941 208.395,159.297 208.770 C 158.656 209.143,158.654 209.177,159.276 209.188 C 159.648 209.195,160.060 209.027,160.190 208.816 C 160.420 208.443,158.190 203.600,157.788 203.600 C 157.678 203.600,158.130 204.672,158.791 205.982 M170.720 204.462 C 170.874 204.607,171.720 204.577,172.600 204.397 L 174.200 204.069 172.320 204.135 C 171.287 204.171,170.567 204.318,170.720 204.462 M194.500 205.026 C 193.565 205.587,192.800 206.140,192.800 206.255 C 192.800 206.371,193.394 206.098,194.120 205.649 C 194.847 205.200,195.882 204.657,196.420 204.442 C 196.959 204.227,197.130 204.041,196.800 204.029 C 196.470 204.017,195.435 204.466,194.500 205.026 M211.563 205.279 C 211.704 205.973,212.045 206.585,212.320 206.640 C 212.595 206.695,212.636 206.649,212.410 206.537 C 212.184 206.425,212.000 205.909,212.000 205.390 C 212.000 204.872,211.844 204.351,211.652 204.232 C 211.461 204.114,211.421 204.585,211.563 205.279 M223.268 205.800 C 223.262 206.240,223.411 206.960,223.600 207.400 C 224.038 208.419,224.038 207.368,223.600 206.000 C 223.343 205.196,223.277 205.157,223.268 205.800 M213.700 206.832 C 214.085 207.056,214.421 207.636,214.446 208.120 C 214.484 208.826,214.530 208.857,214.679 208.281 C 214.884 207.491,214.163 206.393,213.451 206.412 C 213.203 206.419,213.315 206.608,213.700 206.832 M153.400 208.385 C 154.622 208.711,157.870 208.920,157.567 208.653 C 157.475 208.572,156.230 208.407,154.800 208.285 C 153.162 208.146,152.644 208.182,153.400 208.385 M185.400 209.629 C 184.520 210.052,184.250 210.286,184.800 210.149 C 185.933 209.867,188.012 208.825,187.400 208.846 C 187.180 208.853,186.280 209.206,185.400 209.629 M218.796 210.956 C 219.022 211.182,219.676 211.172,220.483 210.929 L 221.800 210.532 220.113 210.559 C 219.080 210.575,218.569 210.729,218.796 210.956 M153.826 211.765 C 155.844 212.644,157.126 212.859,155.400 212.029 C 154.520 211.606,153.530 211.253,153.200 211.245 C 152.870 211.238,153.152 211.472,153.826 211.765 M159.590 213.985 C 160.087 214.300,160.026 214.533,159.201 215.479 L 158.223 216.600 159.361 215.542 C 160.445 214.533,160.501 213.593,159.476 213.606 C 159.186 213.610,159.230 213.758,159.590 213.985 M172.448 214.143 C 172.189 214.454,172.041 215.798,172.099 217.302 C 172.154 218.741,172.330 219.712,172.489 219.459 C 172.648 219.207,172.665 218.028,172.527 216.840 C 172.315 215.021,172.392 214.595,173.014 214.140 C 173.421 213.843,173.561 213.600,173.325 213.600 C 173.090 213.600,172.695 213.844,172.448 214.143 M160.800 217.218 C 160.362 217.515,160.524 217.552,161.400 217.356 C 162.871 217.027,163.190 216.798,162.167 216.806 C 161.745 216.809,161.130 216.995,160.800 217.218 M165.600 216.924 C 165.600 217.589,170.074 220.439,170.877 220.285 C 171.776 220.114,171.774 220.107,170.800 220.046 C 170.250 220.011,169.350 219.621,168.800 219.180 C 166.953 217.698,165.600 216.744,165.600 216.924 M150.300 234.295 C 151.455 234.376,153.345 234.376,154.500 234.295 C 155.655 234.214,154.710 234.148,152.400 234.148 C 150.090 234.148,149.145 234.214,150.300 234.295 M208.700 234.295 C 209.855 234.376,211.745 234.376,212.900 234.295 C 214.055 234.214,213.110 234.148,210.800 234.148 C 208.490 234.148,207.545 234.214,208.700 234.295 M251.760 240.200 C 251.761 243.500,251.822 244.797,251.898 243.082 C 251.973 241.367,251.972 238.667,251.897 237.082 C 251.821 235.497,251.759 236.900,251.760 240.200 M253.360 240.200 C 253.361 243.500,253.422 244.797,253.498 243.082 C 253.573 241.367,253.572 238.667,253.497 237.082 C 253.421 235.497,253.359 236.900,253.360 240.200 M148.900 235.476 C 149.285 235.576,149.915 235.576,150.300 235.476 C 150.685 235.375,150.370 235.293,149.600 235.293 C 148.830 235.293,148.515 235.375,148.900 235.476 M154.500 235.476 C 154.885 235.576,155.515 235.576,155.900 235.476 C 156.285 235.375,155.970 235.293,155.200 235.293 C 154.430 235.293,154.115 235.375,154.500 235.476 M207.300 235.476 C 207.685 235.576,208.315 235.576,208.700 235.476 C 209.085 235.375,208.770 235.293,208.000 235.293 C 207.230 235.293,206.915 235.375,207.300 235.476 M212.900 235.476 C 213.285 235.576,213.915 235.576,214.300 235.476 C 214.685 235.375,214.370 235.293,213.600 235.293 C 212.830 235.293,212.515 235.375,212.900 235.476 M153.355 241.000 C 153.356 243.860,153.420 244.978,153.497 243.483 C 153.574 241.989,153.574 239.649,153.496 238.283 C 153.418 236.918,153.355 238.140,153.355 241.000 M211.755 241.000 C 211.756 243.860,211.820 244.978,211.897 243.483 C 211.974 241.989,211.974 239.649,211.896 238.283 C 211.818 236.918,211.755 238.140,211.755 241.000 M178.948 242.000 C 178.948 244.310,179.014 245.255,179.095 244.100 C 179.176 242.945,179.176 241.055,179.095 239.900 C 179.014 238.745,178.948 239.690,178.948 242.000 M174.920 240.800 C 174.920 242.010,174.995 242.505,175.087 241.900 C 175.178 241.295,175.178 240.305,175.087 239.700 C 174.995 239.095,174.920 239.590,174.920 240.800 M180.514 244.200 C 180.517 245.300,180.595 245.703,180.687 245.095 C 180.779 244.486,180.777 243.586,180.682 243.095 C 180.587 242.603,180.511 243.100,180.514 244.200 " stroke="none" fill="#fbbea8" fill-rule="evenodd"></path></g></svg>